<?xml version="1.0" encoding="utf-8"?>
<!-- Generator: Adobe Illustrator 24.1.1, SVG Export Plug-In . SVG Version: 6.00 Build 0)  -->
<svg version="1.1" id="Layer_1" xmlns="http://www.w3.org/2000/svg"
     xmlns:xlink="http://www.w3.org/1999/xlink" x="0px" y="0px"
     viewBox="0 0 102 65.8" style="enable-background:new 0 0 102 65.8;" xml:space="preserve">
<style type="text/css">
	.st0{fill:#FFFFFF;}
</style>
  <g id="Layer_2_1_">
	<g id="RAW">
		<path class="st0" d="M91,14.1C90.6,5.9,83.6-0.5,75.3-0.1C70.2,0.2,65.5,3.1,63,7.7c-3.9-7.2-13-9.9-20.3-6
			C35.9,5.4,33,13.9,36.3,21H18c-0.3,0-0.7,0-1,0.1C8.1,22,1.1,29.1,0.1,38h65.5l-5.5,9.6l-5.5-9.5l-5.5,9.5l-5.5-9.5l-5.5,9.5
			l-5.5-9.5l-5.5,9.5l-5.5-9.5l-5.5,9.5L11,38.1l-5.5,9.5l-5.4-9.5C0,38.8,0,39.4,0,40c0,9.7,7.3,17.8,17,18.9
			c0.3,0.1,0.7,0.1,1,0.1h36.4c12.4,10.1,30.6,8.3,40.7-4.1S103.4,24.2,91,14.1C91,14.1,91,14.1,91,14.1z M48.6,17.6
			c-1.5,0-2.6-1.2-2.6-2.6c0-1.5,1.2-2.6,2.6-2.6c1.5,0,2.6,1.2,2.6,2.6c0,0,0,0,0,0C51.2,16.4,50.1,17.6,48.6,17.6z M74.7,12.3
			c1.5,0,2.6,1.2,2.6,2.6c0,1.5-1.2,2.6-2.6,2.6c-1.4,0-2.6-1.1-2.6-2.6C72.1,13.5,73.2,12.3,74.7,12.3
			C74.7,12.3,74.7,12.3,74.7,12.3z M78.2,46.3c-4.1,0-7.5-3.4-7.5-7.5s3.4-7.5,7.5-7.5s7.5,3.4,7.5,7.5l0,0
			C85.7,43,82.3,46.3,78.2,46.3C78.2,46.3,78.2,46.3,78.2,46.3L78.2,46.3z"/>
	</g>
</g>
</svg>
