<?xml version="1.0" encoding="utf-8"?>
<!-- Generator: Adobe Illustrator 24.1.1, SVG Export Plug-In . SVG Version: 6.00 Build 0)  -->
<svg version="1.1" id="Layer_1" xmlns="http://www.w3.org/2000/svg"
     xmlns:xlink="http://www.w3.org/1999/xlink" x="0px" y="0px"
     viewBox="0 0 95.9 73.3" style="enable-background:new 0 0 95.9 73.3;" xml:space="preserve">
<style type="text/css">
	.st0{fill:#FFFFFF;}
</style>
  <g id="Layer_2_1_">
	<g id="RAW">
		<path class="st0" d="M68.8,9.9H30.1V6c0-3.3-2.7-6-6-6s-6,2.7-6,6v5.4C7.3,15.2,0,25.5,0,37l0.4,0.7L0,37.2V73h8V50.5h10.8
			c9,0,16.3,7.1,16.6,16.1v1.3h-3.9c-1.5,0-2.7,1.2-2.7,2.7s1.2,2.7,2.7,2.7h18.9V51.7h15.9c8.2,1,14.5,7.9,14.6,16.2h-4.3
			c-1.5,0-2.7,1.2-2.7,2.7s1.2,2.7,2.7,2.7h19.3V37C95.9,22,83.8,9.9,68.8,9.9C68.8,9.9,68.8,9.9,68.8,9.9z M18.6,35.1
			c-1.4,0-2.5-1.1-2.5-2.5c0-1.4,1.1-2.5,2.5-2.5s2.5,1.1,2.5,2.5C21.1,34,20,35.1,18.6,35.1C18.6,35.1,18.6,35.1,18.6,35.1z"/>
	</g>
</g>
</svg>
