<?xml version="1.0" encoding="utf-8"?>
<!-- Generator: Adobe Illustrator 24.1.1, SVG Export Plug-In . SVG Version: 6.00 Build 0)  -->
<svg version="1.1" id="Layer_1" xmlns="http://www.w3.org/2000/svg"
     xmlns:xlink="http://www.w3.org/1999/xlink" x="0px" y="0px"
     viewBox="0 0 103.6 77.6" style="enable-background:new 0 0 103.6 77.6;" xml:space="preserve">
<style type="text/css">
	.st0{fill:#FFFFFF;}
</style>
  <g id="Layer_2_1_">
	<g id="RAW">
		<path class="st0" d="M103.6,50c0-11.1-5.5-21.4-14.8-27.6c-5.7,3.1-15.1,8.1-15.5,8.5s7.7-8.2,10.6-11.2l0,0l5.1-5.1
			C81.2,6.9,70.1,3.5,59.3,5.5c-1.1,8.2-3.3,24.9-3.3,25.4S53.1,2.6,52.8,0C35.2,0.4,20.9,14.5,20.4,32.2c-0.5-0.9-1.2-1.7-1.9-2.4
			c-5.1-5.1-13.4-5.1-18.6,0l11.6,11.7C7.1,47.4,0,59.3,1,74.6h6.9c0,0,2.6-12.8,17.6-14.4c1.7,0,3.5-0.4,5.1-1l-3,7.4h8.2
			l11.7-14.4l-5.8,14.4h8.2L63.4,50h31.2c0.1,2.9-0.2,5.7-1.1,8.5c-0.9,2.6-2.3,5-4.1,7c-3.8,4.3-9.2,6.9-14.9,7.2l0,0
			c-1.3,0-2.4,1.1-2.4,2.4s1.1,2.4,2.4,2.4c3.6,0.2,7.1-0.4,10.5-1.6c3.4-1.2,6.6-3.1,9.3-5.6c2.8-2.5,5-5.5,6.6-8.9
			c1.6-3.4,2.5-7.1,2.7-10.9v-0.2C103.5,50.3,103.5,50.1,103.6,50L103.6,50z M20.4,51.4c-1.9,0-3.4-1.5-3.4-3.5s1.5-3.5,3.5-3.5
			s3.4,1.5,3.4,3.5C23.9,49.8,22.3,51.4,20.4,51.4C20.4,51.4,20.4,51.4,20.4,51.4z"/>
	</g>
</g>
</svg>
