<?xml version="1.0" encoding="utf-8"?>
<!-- Generator: Adobe Illustrator 24.1.1, SVG Export Plug-In . SVG Version: 6.00 Build 0)  -->
<svg version="1.1" id="Layer_1" xmlns="http://www.w3.org/2000/svg"
     xmlns:xlink="http://www.w3.org/1999/xlink" x="0px" y="0px"
     viewBox="0 0 98.5 67.1" style="enable-background:new 0 0 98.5 67.1;" xml:space="preserve">
<style type="text/css">
	.st0{fill:#FFFFFF;}
</style>
  <g id="Layer_2_1_">
	<g id="RAW">
		<path class="st0" d="M69.1,0c3.8,10.3-0.7,22-10.3,30.7V7.1l-7,8.2h-5l-7-8.2v23.6C30.1,22,25.6,10.3,29.4,0
			C4.1,11.7-7,41.7,4.6,67.1c0,0,0,0,0,0c2.9-7.9,11.7-12,19.6-9.1c0,0,0,0,0,0c2.4-6.4,8.3-10.9,15.1-11.6c4.6,0.6,8,4.5,8,9.1V58
			c-0.1,0.6,0.4,1.1,1,1.2s1.1-0.4,1.2-1c0-0.1,0-0.1,0-0.2c0-0.1,0-0.2,0-0.3v-2.2c0-4.9,3.8-8.9,8.6-9.2c7.2,0.3,13.5,4.9,16,11.7
			c7.9-2.9,16.7,1.1,19.6,9c0,0,0,0,0,0C105.5,41.7,94.4,11.7,69.1,0z M43.3,21.4c0-1.2,1-2.3,2.3-2.3s2.3,1,2.3,2.3s-1,2.3-2.3,2.3
			S43.3,22.6,43.3,21.4z M51.7,32.6l-2.2-3.8l-2.2,3.8l-2.2-3.8h8.7L51.7,32.6z M53.5,23.6c-1.2,0-2.3-1-2.3-2.3s1-2.3,2.3-2.3
			s2.3,1,2.3,2.3S54.7,23.6,53.5,23.6z"/>
	</g>
</g>
</svg>
