<?xml version="1.0" encoding="utf-8"?>
<!-- Generator: Adobe Illustrator 24.1.1, SVG Export Plug-In . SVG Version: 6.00 Build 0)  -->
<svg version="1.1" id="Layer_1" xmlns="http://www.w3.org/2000/svg"
     xmlns:xlink="http://www.w3.org/1999/xlink" x="0px" y="0px"
     viewBox="0 0 87.3 78.6" style="enable-background:new 0 0 87.3 78.6;" xml:space="preserve">
<style type="text/css">
	.st0{fill:#FFFFFF;}
</style>
  <g id="Layer_2_1_">
	<g id="RAW">
		<path class="st0" d="M86.6,61.2L73.4,46h11.7c2.2,0,2.8-1.3,1.3-3L71.9,27c-0.2-0.2-0.5-0.5-0.7-0.6V7.5c0-4.1-3.4-7.5-7.5-7.5
			s-7.5,3.4-7.5,7.5v1.4c-8.2-4-17.9-3.9-26,0.3V7.5c0-4.1-3.4-7.5-7.5-7.5s-7.5,3.4-7.5,7.5v18.8c-0.3,0.2-0.6,0.4-0.8,0.7
			L0.8,42.9c-1.4,1.7-0.8,3,1.4,3h11.6l-13,15.2c-1.4,1.7-0.8,3,1.4,3h15.8c0.1,0,0.3,0,0.4,0C26.4,78,44.1,82.7,58,74.6
			c4.5-2.6,8.2-6.3,10.7-10.8c0.5,0.2,1,0.4,1.6,0.4h14.9C87.4,64.2,88,62.8,86.6,61.2z M28.8,27.3c-1.5,0-2.6-1.2-2.6-2.6
			s1.2-2.6,2.6-2.6c1.5,0,2.6,1.2,2.6,2.6v0C31.4,26.1,30.2,27.3,28.8,27.3z M56.2,31.5l-9.4,16.4v6.5c2.2-0.5,4.3-1.7,5.8-3.4
			c0.7-0.8,2-0.9,2.8-0.2s0.9,2,0.2,2.8c-1.4,1.6-3.2,2.9-5.2,3.7c0,0.2,0,0.4-0.1,0.6l-1.4,5c-0.5,1.7-2.1,2.8-3.8,2.9h-1.5
			c-1.7-0.1-3.3-1.2-3.8-2.9l-1.4-5c-0.1-0.2-0.1-0.4-0.1-0.6c-2-0.9-3.7-2.1-5.2-3.7c-0.7-0.8-0.7-2.1,0.1-2.8c0,0,0,0,0,0
			c0.8-0.7,2.1-0.7,2.8,0.2c1.7,1.9,4,3.1,6.6,3.5V49c-0.1-0.1-0.2-0.3-0.3-0.5l-9.7-17.1c-1.1-1.9-0.2-3.5,2-3.5h19.4
			C56.3,28,57.2,29.6,56.2,31.5z M60,27.3c-1.5,0-2.6-1.2-2.6-2.6S58.5,22,60,22c1.5,0,2.6,1.2,2.6,2.6v0
			C62.6,26.1,61.5,27.3,60,27.3z"/>
	</g>
</g>
</svg>
