<?xml version="1.0" encoding="utf-8"?>
<!-- Generator: Adobe Illustrator 24.1.1, SVG Export Plug-In . SVG Version: 6.00 Build 0)  -->
<svg version="1.1" id="Layer_1" xmlns="http://www.w3.org/2000/svg"
     xmlns:xlink="http://www.w3.org/1999/xlink" x="0px" y="0px"
     viewBox="0 0 110.6 80.2" style="enable-background:new 0 0 110.6 80.2;" xml:space="preserve">
<style type="text/css">
	.st0{fill:#FFFFFF;}
</style>
  <g id="Layer_2_1_">
	<g id="RAW">
		<path class="st0" d="M109.1,45V34.3c0-13.8-18.4-19.5-19.2-19.7l0,0c-0.3-0.1-0.7-0.3-1-0.4l0,0h-0.1c-0.2-0.1-0.4-0.1-0.6-0.2
			L58.7,5.7V5.6l-15-4.3l-0.2-0.1l-0.2-0.1l0,0c-0.6-0.2-1.3-0.3-2-0.3c-3.2,0-6.1,1.9-7.4,4.8c-0.2-0.2-0.5-0.4-0.8-0.4l-4.1-0.7
			l-2-3.7c-0.4-0.7-1.3-1-2-0.6L21.2,2l-3.8-1.9c-0.7-0.4-1.6-0.1-2,0.6l-2,3.7L9.3,5.2C8.5,5.4,8,6.1,8.1,6.9l0.6,4.2l-2.9,3
			c-0.1,0.1-0.1,0.1-0.1,0.2l-0.2-0.2c-0.8-1-1.5-2-2-3.2c-0.3-0.6-1-0.9-1.6-0.7c-0.3,0.1-0.5,0.4-0.7,0.7l0,0
			c-0.6,1.6-0.7,3.4-0.4,5.1c0.3,1.8,1.1,3.5,2.2,5c0.9,1.2,2,2.2,3.3,3L0.4,39c0,0,0,0.1,0,0.1l-0.1,0.1l0,0
			c-0.9,2.3,0.3,5,2.6,5.8c0.5,0.2,1.1,0.3,1.6,0.3c0.4,0,0.7-0.1,1.1-0.2l18.6-2.5L37,78.1l0.1-0.4c0.4,1.7,2.1,2.8,3.9,2.3
			c1-0.3,1.9-1,2.2-2h0.2l7-20.9h31l9.3,20.9H91c0.5,1.7,2.2,2.7,3.9,2.3c1.5-0.4,2.5-1.8,2.4-3.4l1.4-49.3c0-1.7-0.3-3.4-0.9-4.9
			c3.8,2.6,7.4,6.4,7.4,11.5V45c-2.3,3-1.8,7.3,1.2,9.7c0.3,0.2,0.5,0.4,0.8,0.5c3.3-1.9,4.4-6.1,2.5-9.4
			C109.5,45.5,109.3,45.3,109.1,45z M16.6,29.3c-1.4,0-2.5-1.1-2.5-2.5s1.1-2.5,2.5-2.5s2.5,1.1,2.5,2.5
			C19.2,28.2,18,29.3,16.6,29.3C16.7,29.3,16.7,29.3,16.6,29.3z"/>
	</g>
</g>
</svg>
