<?xml version="1.0" encoding="utf-8"?>
<!-- Generator: Adobe Illustrator 24.1.1, SVG Export Plug-In . SVG Version: 6.00 Build 0)  -->
<svg version="1.1" id="Layer_1" xmlns="http://www.w3.org/2000/svg"
     xmlns:xlink="http://www.w3.org/1999/xlink" x="0px" y="0px"
     viewBox="0 0 104.5 107" style="enable-background:new 0 0 104.5 107;" xml:space="preserve">
<style type="text/css">
	.st0{fill:#FFFFFF;}
</style>
  <g id="Layer_2_1_">
	<g id="RAW">
		<path class="st0" d="M104.4,104.3L85.1,52.5c-0.1-0.2-0.2-0.3-0.3-0.5L84,49.5l10.6,9.6c0.8,0.7,2.1,0.7,2.8-0.2s0.7-2.1-0.2-2.8
			l0,0L81.7,42c-0.1-0.1-0.2-0.1-0.2-0.2l-3.8-11.3l0,0C75.1,22,66.3,17.2,57.8,19.6c-2.7,0.8-5.1,2.2-7,4.2l0,0l0,0
			c-1.7,1.8-3,3.9-3.8,6.2v0.1c-5.4-3.7-12.8-2.2-16.5,3.2c-1.3,1.9-2,4.2-2,6.6h-5V8.9l0.4-7.5C24,0.6,23.3,0,22.6,0
			c-0.6,0-1.1,0.3-1.3,0.8h-0.1l-1.3,4.6H6.8C3,5.5,0,8.5,0.1,12.3c0,1,0.2,2,0.7,2.9v-0.3c3.1,0,5.6-2.6,5.6-5.7h3
			c0,4-2.8,7.5-6.6,8.4c1.2,0.9,2.6,1.3,4,1.3h5.8L4.3,48.9c-0.2,0.7-0.4,1.3-0.6,2v0.1l0,0c-1.3,6.9,3.2,13.5,10.1,14.8
			c0.8,0.2,1.6,0.2,2.4,0.2h0.2L16,105c0,0.5,0.2,1.1,0.6,1.4c0.4,0.4,0.9,0.6,1.4,0.6h3.4c1,0,1.8-0.7,2-1.6l5-27.2h52.2L96.3,106
			c0.4,0.6,1,1,1.8,1h4.5c1.1,0,2-0.9,2-2C104.5,104.8,104.5,104.5,104.4,104.3L104.4,104.3z M16,11.8c-1,0-1.8-0.8-1.8-1.8
			c0-1,0.8-1.8,1.8-1.8c1,0,1.8,0.8,1.8,1.8C17.9,11,17.1,11.8,16,11.8C16,11.8,16,11.8,16,11.8z"/>
	</g>
</g>
</svg>
