<?xml version="1.0" encoding="utf-8"?>
<!-- Generator: Adobe Illustrator 24.1.1, SVG Export Plug-In . SVG Version: 6.00 Build 0)  -->
<svg version="1.1" id="Layer_1" xmlns="http://www.w3.org/2000/svg"
     xmlns:xlink="http://www.w3.org/1999/xlink" x="0px" y="0px"
     viewBox="0 0 100.3 87.4" style="enable-background:new 0 0 100.3 87.4;" xml:space="preserve">
<style type="text/css">
	.st0{fill:#FFFFFF;}
</style>
  <g id="Layer_2_1_">
	<g id="RAW">
		<path class="st0" d="M88.3,41.6L39.8,10.2l-0.1-0.1l-0.5-0.3l0,0C37.9,9,36.5,8.4,35,8.1V4.2c0.1-2.3-1.7-4.3-4-4.4
			s-4.3,1.7-4.4,4c0,0.1,0,0.3,0,0.4v4.4c-0.9,0.3-1.7,0.7-2.5,1.2l0,0L23.8,10l-0.4,0.2l-16,10.6l0,0c-7.4,4.6-9.6,14.2-5,21.6
			c3.4,5.5,9.9,8.3,16.3,7.1l8-1.5l1.9,2.3l-10.8,37h6.7L38.9,63l11,13.4c1.1,1.4,2.3,2.6,3.7,3.7H47c-2,0.1-3.5,1.8-3.4,3.8
			c0.1,1.8,1.6,3.3,3.4,3.4h26l0,0h4.9v-0.1c13.5-1.1,23.6-13,22.4-26.5C99.6,52.8,95.1,45.6,88.3,41.6z M6,39c-1.2,0-2.2-1-2.2-2.2
			c0-1.2,1-2.2,2.2-2.2c1.2,0,2.2,1,2.2,2.2c0,0,0,0,0,0C8.2,38,7.2,39,6,39z M24.6,24.2h-7.1c-0.8,0-1.5-0.7-1.5-1.5
			s0.7-1.5,1.5-1.5h7.1c0.8,0,1.5,0.7,1.5,1.5S25.5,24.2,24.6,24.2z"/>
	</g>
</g>
</svg>
