<?xml version="1.0" encoding="utf-8"?>
<!-- Generator: Adobe Illustrator 24.1.1, SVG Export Plug-In . SVG Version: 6.00 Build 0)  -->
<svg version="1.1" id="Layer_1" xmlns="http://www.w3.org/2000/svg"
     xmlns:xlink="http://www.w3.org/1999/xlink" x="0px" y="0px"
     viewBox="0 0 94.6 99.9" style="enable-background:new 0 0 94.6 99.9;" xml:space="preserve">
<style type="text/css">
	.st0{fill:#FFFFFF;}
</style>
  <g id="Layer_2_1_">
	<g id="RAW">
		<path class="st0" d="M76.5,81.5l-10.4,6c1.8-5.1,1.4-10.7-1.2-15.4l0,0L64.8,72c-0.4-0.8-0.9-1.5-1.5-2.2l-30.1-45
			c9.8,4.9,12.3-4.4,12.3-4.4l-12.3-3.8c-1.4-4.9-6-8.3-11.1-8.3c-1.5,0-3,0.4-4.3,1l-11.2-6C6.2,3.1,5.9,3,5.6,3c0-0.1,0-0.2,0-0.2
			C5.6,1.3,4.3,0,2.8,0S0,1.2,0,2.8c0,1.5,1.2,2.8,2.8,2.8H3C3,6,3.1,6.4,3.4,6.8l0,0l6.4,8.3L5,14c-0.1,0-0.2,0-0.3,0
			C3.8,14,3,14.7,3,15.6c0,0.4,0.1,0.8,0.4,1.1v0l7.5,8.8l-3,6.5l8.3-0.1l0.4,0.4l-2.6,59.2h-2c-2.3-0.1-4.3,1.7-4.4,4
			c-0.1,2.3,1.7,4.3,4,4.4c0.1,0,0.3,0,0.4,0h10.6v-0.1c0.2,0,0.4,0,0.5,0.1h53.5c0,0,18-1.5,18-18V36.5
			C94.6,36.5,76.5,34.8,76.5,81.5z M25,12.7c1.4,0,2.5,1.1,2.5,2.5s-1.1,2.5-2.5,2.5s-2.5-1.1-2.5-2.5S23.6,12.7,25,12.7z
			 M23.4,91.5L23.4,91.5c-0.1,0-0.2,0-0.3,0c-0.2,0-0.4,0-0.5,0l0,0h-2.7l7.3-32.5l4.8,13.4c-3.2,6-2.8,13.3,1,19L23.4,91.5z"/>
	</g>
</g>
</svg>
