<?xml version="1.0" encoding="utf-8"?>
<!-- Generator: Adobe Illustrator 24.1.1, SVG Export Plug-In . SVG Version: 6.00 Build 0)  -->
<svg version="1.1" id="Layer_1" xmlns="http://www.w3.org/2000/svg"
     xmlns:xlink="http://www.w3.org/1999/xlink" x="0px" y="0px"
     viewBox="0 0 106.1 107" style="enable-background:new 0 0 106.1 107;" xml:space="preserve">
<style type="text/css">
	.st0{fill:#FFFFFF;}
</style>
  <g id="Layer_2_1_">
	<g id="RAW">
		<polygon class="st0" points="72.1,59.5 49.6,58.4 59.8,39.9 78.3,45.8 		"/>
    <path class="st0" d="M16.7,16.5c0,0.5-0.3,0.9-0.8,0.9c-0.5,0-0.9-0.3-0.9-0.8c0-0.5,0.3-0.9,0.8-0.9C16.2,15.7,16.6,16,16.7,16.5
			C16.7,16.5,16.7,16.5,16.7,16.5z"/>
    <path class="st0" d="M106,74.9c-0.6-7-3.6-13.6-8.4-18.7l0.4,0.4l-0.3-0.3L97.5,56l-0.3-0.3l-0.6-0.5c-0.4-0.3-0.7-0.6-1.1-0.9
			c-0.7-0.6-1.4-1.1-2.1-1.5c-1.3-0.9-2.8-1.7-4.2-2.4c-0.5-0.2-0.9-0.4-1.4-0.6C82,36.3,72.3,21.8,54.7,21.8L35.3,20l-1.2,0.5
			c0,0,0-0.1,0-0.2C49.2,16.1,43.8,0,43.8,0L14,9c-2.9,0.8-5.2,3.1-6,6.1C7.7,16,7.5,17,7.5,18l-6,4.2l0,0c-1.6,1.2-2,3.5-0.8,5.1
			c0.6,0.8,1.5,1.3,2.4,1.4l0,0l0.4,0.1c1.7-0.7,2.8-2.4,2.8-4.3c0-0.8,0.7-1.5,1.5-1.5s1.5,0.7,1.5,1.5c0,0.4,0,0.9-0.1,1.3
			c0.1,1.4-0.4,2.7-1.4,3.7l4,0.7l10.7,9.7l0,0c-3.1,4.3-5,9-4.8,13.8l-1,23.9l4.5,0.1L27.6,60l22.5,0.4L31.3,78h6.9l31.6-15.7
			c2.5,0,5,0.2,7.4,0.6c2,0.3,3.9,0.8,5.8,1.5c0.8,0.3,1.7,0.7,2.4,1.1c0.3,0.2,0.7,0.4,1,0.6l0.4,0.3l0.1,0.1l0,0l0,0l-0.2-0.2
			l0.3,0.3l0.1,0.1c2.9,2.6,4.9,6.1,5.6,10c0.7,4,0.1,8.1-1.7,11.7c-0.5,0.9-1,1.8-1.7,2.6c-0.2,0.2-0.3,0.4-0.5,0.6l-0.2,0.3
			l-0.3,0.4c-0.3,0.4-0.6,0.7-1,1c-1.4,1.3-3.1,2.4-5,3c-3.9,1.3-8.2,1-11.8-1c-0.9-0.5-1.8-1.1-2.6-1.7l-0.6-0.6
			c-0.2-0.2-0.4-0.3-0.5-0.5c-0.3-0.4-0.6-0.7-0.9-1.2c-1.2-1.7-1.9-3.6-2.1-5.6c-0.2-2.1,0.1-4.2,1-6.1c0.2-0.5,0.5-1,0.7-1.4
			c0.3-0.4,0.6-0.9,0.9-1.3c0.3-0.4,0.7-0.8,1.1-1.2c0.4-0.4,0.8-0.7,1.2-1c1.7-1.2,3.8-1.7,5.9-1.6c2.2,0.1,4.2,0.9,5.9,2.3
			c1.7,1.4,2.7,3.3,2.8,5.5c0.2,2.3-0.6,4.5-2.2,6.2c-0.7,0.7-0.7,1.8,0,2.4c0.7,0.7,1.8,0.7,2.4,0l0,0h0.1c1.2-1.1,2.1-2.4,2.7-3.8
			c0.7-1.5,1-3.1,1-4.7c0-1.7-0.3-3.3-0.9-4.9c-0.6-1.5-1.6-2.9-2.7-4.1c-2.3-2.4-5.4-3.9-8.6-4.3c-3.3-0.5-6.8,0.1-9.7,1.8
			c-0.7,0.4-1.5,0.9-2.1,1.4c-0.6,0.5-1.2,1-1.8,1.6c-0.6,0.6-1.1,1.3-1.6,1.9c-0.5,0.7-0.9,1.4-1.3,2.1C56.8,79.3,56,82.6,56,86
			c0.1,4.3,1.5,8.5,4.1,11.9c0.3,0.3,0.5,0.7,0.8,1l0.5,0.5l0.4,0.4c1.2,1.2,2.5,2.3,3.9,3.2c5.7,3.8,12.8,5,19.4,3.4
			c3.4-0.8,6.5-2.3,9.3-4.4c0.7-0.5,1.4-1.1,2-1.7l0.4-0.3l0.5-0.5c0.3-0.3,0.6-0.6,0.9-0.9c1.1-1.2,2.2-2.6,3.1-4
			C104.9,88.6,106.6,81.8,106,74.9z M16.2,21.4c-2.5,0.2-4.7-1.6-4.9-4.1c-0.2-2.5,1.6-4.7,4.1-4.9c2.5-0.2,4.7,1.6,4.9,4.1
			c0,0,0,0,0,0C20.5,19,18.7,21.2,16.2,21.4z"/>
	</g>
</g>
</svg>
