<?xml version="1.0" encoding="utf-8"?>
<!-- Generator: Adobe Illustrator 24.1.1, SVG Export Plug-In . SVG Version: 6.00 Build 0)  -->
<svg version="1.1" id="Layer_1" xmlns="http://www.w3.org/2000/svg"
     xmlns:xlink="http://www.w3.org/1999/xlink" x="0px" y="0px"
     viewBox="0 0 106.9 91" style="enable-background:new 0 0 106.9 91;" xml:space="preserve">
<style type="text/css">
	.st0{fill:#FFFFFF;}
</style>
  <g id="Layer_2_1_">
	<g id="RAW">
		<path class="st0" d="M101.5,55.2c-3.4-3.5-8.1-5.4-13-5.4l0,0c-8.4,0-15.2,6.8-15.2,15.1c0,0,0,0,0,0.1c0,6.9,5.6,12.5,12.5,12.5
			c5.8,0,10.4-4.7,10.4-10.4c0-1.1-0.9-2-2-2s-2,0.9-2,2c0,3.5-2.9,6.4-6.4,6.4c-4.7,0-8.5-3.8-8.5-8.5c0-6.2,4.9-11.2,11.1-11.2
			c0,0,0,0,0.1,0l0,0c8,0,14.5,6.5,14.5,14.5c0,10.3-8.3,18.6-18.6,18.6c0,0,0,0,0,0H62.7c5-5,5.4-12.9,1.1-18.5l0,0L40.4,26.4
			l1-4.2l0,0c0.7-1.6,1-3.4,1-5.2l3.3-17c-6.1-0.2-7.9,4.9-8.5,7.4c-2.7-1.6-5.7-2.4-8.9-2.4c-2.9-0.1-5.8,0.6-8.3,2
			c-0.6-2.5-2.5-7.2-8.4-7l1.7,8.7l1,8.3c0,1,0.1,2,0.3,3l0,0c0,0,3.3,20.9,6,40c-0.2,0-0.5,0-0.7,0c-4.6,0-8.3,3.8-8.3,8.4
			c0,0.7,0.1,1.4,0.3,2.1l1.6,12.3H4.1c-2.3,0-4.1,1.8-4.1,4.1S1.8,91,4.1,91h22.3v-0.1h24.8L51,90.8h0.1c1.1,0.1,2.2,0.1,3.3,0
			h29.9c12.5,0,22.6-10.1,22.6-22.6c0,0,0,0,0,0C106.9,63.4,105,58.7,101.5,55.2z M45.5,49.4c1.7,0,3.1,1.4,3.1,3.1
			c0,1.7-1.4,3.1-3.1,3.1c-1.7,0-3.1-1.4-3.1-3.1c0,0,0,0,0,0C42.4,50.8,43.8,49.5,45.5,49.4L45.5,49.4z M35.2,12.5
			c1,0,1.9,0.8,1.9,1.9c0,1-0.8,1.9-1.9,1.9s-1.9-0.8-1.9-1.9c0,0,0,0,0,0C33.3,13.4,34.2,12.5,35.2,12.5z M30.7,14.2L34,20h-2.3v4
			c1-0.4,1.7-1.4,1.7-2.5h2c0,2.6-2.1,4.7-4.7,4.7c-2.6,0-4.7-2.1-4.7-4.7h2c0,1.1,0.7,2.1,1.7,2.5v-4h-2.4L30.7,14.2z M29.7,47.6
			c0,1.2-1,2.2-2.2,2.2s-2.2-1-2.2-2.2s1-2.2,2.2-2.2l0,0C28.7,45.5,29.7,46.4,29.7,47.6C29.7,47.6,29.7,47.6,29.7,47.6z M25.5,12.5
			c1,0,1.9,0.8,1.9,1.9s-0.8,1.9-1.9,1.9s-1.9-0.8-1.9-1.9c0,0,0,0,0,0C23.6,13.4,24.5,12.5,25.5,12.5z M27.3,86.2
			c-1.9,0-3.4-1.5-3.4-3.4c0-1.9,1.5-3.4,3.4-3.4c1.9,0,3.4,1.5,3.4,3.4c0,0,0,0,0,0C30.8,84.7,29.2,86.2,27.3,86.2
			C27.3,86.2,27.3,86.2,27.3,86.2z M32.7,69.8c-2.3,0-4.2-1.9-4.2-4.2c0-2.3,1.9-4.2,4.2-4.2s4.2,1.9,4.2,4.2
			C36.9,67.9,35,69.8,32.7,69.8L32.7,69.8z M37.8,41.2c-1.7,0-3.1-1.4-3.1-3.1c0-1.7,1.4-3.1,3.1-3.1c1.7,0,3.1,1.4,3.1,3.1
			c0,0,0,0,0,0C40.9,39.8,39.5,41.2,37.8,41.2C37.8,41.2,37.8,41.2,37.8,41.2z M47.4,78.5c-2.8,0-5.1-2.3-5.1-5.1
			c0-2.8,2.3-5.1,5.1-5.1c2.8,0,5.1,2.3,5.1,5.1l0,0C52.5,76.2,50.2,78.5,47.4,78.5z"/>
	</g>
</g>
</svg>
