<?xml version="1.0" encoding="utf-8"?>
<!-- Generator: Adobe Illustrator 24.1.1, SVG Export Plug-In . SVG Version: 6.00 Build 0)  -->
<svg version="1.1" id="Layer_1" xmlns="http://www.w3.org/2000/svg"
     xmlns:xlink="http://www.w3.org/1999/xlink" x="0px" y="0px"
     viewBox="0 0 97.6 85.5" style="enable-background:new 0 0 97.6 85.5;" xml:space="preserve">
<style type="text/css">
	.st0{fill:#FFFFFF;}
</style>
  <g id="Layer_2_1_">
	<g id="RAW">
		<path class="st0" d="M97.6,33.9c-0.2-3.7-3.4-6.5-7.2-6.3c-3.7,0.2-6.5,3.4-6.3,7.2c0.3,4.7-0.2,9.5-1.5,14
			c-0.1-1-0.2-1.9-0.3-2.9c-0.2-1.5-0.6-2.9-1-4.3c-0.2-0.7-0.5-1.4-0.8-2.1c-0.3-0.7-0.6-1.5-1-2.2v-0.1c-0.1-0.1-0.1-0.2-0.2-0.3
			c-1-1.4-3.1-1.7-4.5-0.7c-1.4,1-1.7,3.1-0.7,4.5c0.3,0.4,0.6,0.9,0.8,1.4c0.3,0.5,0.5,1,0.8,1.6c0.5,1.1,0.9,2.2,1.2,3.4
			c0.7,2.3,1,4.8,0.9,7.2c-0.1,2.6-0.6,5.2-1.5,7.7c-0.8,1.1-1.7,2.3-2.7,3.3s-1.9,2.1-3,3c3.1-9.4,0.2-19.7-7.3-26.2L38.7,16.3l0,0
			c-1.2-1.4-2.6-2.5-4.2-3.4l1.7-5.7c0.1-4-3-7.4-7-7.5s-7.4,3-7.5,7c0,0.2,0,0.4,0,0.5l1.4,4.5c-1.4,0.4-2.7,1.1-4,1.9l0,0
			c-1,0.7-1.9,1.5-2.7,2.4L3.8,27.1c-0.4-0.5-1-0.7-1.6-0.7c-1.2,0.1-2.1,1.1-2,2.3c0.1,1.1,0.9,2,2,2h0.1c0.4,2.7,2.3,7,10.4,7
			c1.7,0.1,3.4-0.5,4.7-1.5l1.6,7.1l-5,6.5c-0.8,1.1-0.6,2.7,0.5,3.5s2.7,0.6,3.5-0.5l2.4-3.2l3.2,14.5c0.9,6.2,4.1,11.8,9,15.6
			h-6.6c-1.6,0-2.9,1.3-2.9,2.9c0,1.6,1.3,2.9,2.9,2.9h18c1.2,0,2.3-0.2,3.4-0.5h0.2c1.3,0,2.5-0.1,3.7-0.3
			c3.9-0.4,7.8-1.3,11.5-2.6c6.4-2.3,12.3-5.8,17.4-10.4c5.2-4.7,9.3-10.3,12.3-16.6c3-6.4,4.8-13.4,5.1-20.4v-0.1
			C97.6,34.4,97.6,34.1,97.6,33.9z M25.5,25.3c-1.4,0-2.5-1.1-2.5-2.5s1.1-2.5,2.5-2.5s2.5,1.1,2.5,2.5S26.9,25.3,25.5,25.3z"/>
	</g>
</g>
</svg>
