<?xml version="1.0" encoding="utf-8"?>
<!-- Generator: Adobe Illustrator 24.1.1, SVG Export Plug-In . SVG Version: 6.00 Build 0)  -->
<svg version="1.1" id="Layer_1" xmlns="http://www.w3.org/2000/svg"
     xmlns:xlink="http://www.w3.org/1999/xlink" x="0px" y="0px"
     viewBox="0 0 80.1 95.5" style="enable-background:new 0 0 80.1 95.5;" xml:space="preserve">
<style type="text/css">
	.st0{fill:#FFFFFF;}
</style>
  <g id="Layer_2_1_">
	<g id="RAW">
		<path class="st0" d="M79.9,42L79.9,42c-0.1-0.5-0.2-0.9-0.4-1.3C79.2,28.3,69,18.5,56.7,18.5H45.2c-4.5,0-8.9,1.3-12.7,3.8
			c2.1-5.9-0.5-12.5-6-15.4V3.6c0.1-2-1.4-3.7-3.4-3.8s-3.7,1.4-3.8,3.4c0,0.1,0,0.3,0,0.4c0,0.4,0.1,0.8,0.2,1.1l0.1,0.7
			c-3.8,0.3-7.2,2.2-9.4,5.3l-8.1,9c-2.4,2-2.7,5.5-0.8,7.8c1.1,1.3,2.6,2,4.3,2h5.8c1.1-0.8,1.8-2.2,1.8-3.6c0-0.8,0.7-1.5,1.5-1.5
			c0.8,0,1.5,0.7,1.5,1.5c0,2.1-0.9,4.1-2.4,5.5l6,11l-4.5,4.7c-1,1-0.9,2.6,0.1,3.5s2.6,0.9,3.5-0.1l0,0l3.4-3.5l2.3,4.2
			c3.8,7.9,11.8,12.9,20.6,12.9h11.5c0.6,0,1.3,0,1.9-0.1c-2.2,1.8-4.6,3.3-7.3,4.5c-2.3,1-4.7,1.6-7.2,1.8c-1.2,0.1-2.3,0.1-3.5,0
			c-0.6,0-1.1-0.1-1.7-0.2l-2.6-0.3l-20.7-2.5c-1.1-0.1-2.2-0.1-3.3,0c-7.7,1.1-13.1,8.2-12,15.9c1,7.5,7.8,12.8,15.3,12.1L36.4,93
			l2.6-0.3c1.1-0.1,2.3-0.2,3.4-0.4c2.3-0.4,4.5-0.9,6.7-1.7c4.2-1.4,8.2-3.5,11.8-6.2c6.7-5,11.9-11.7,15.2-19.4
			c1.6-3.6,2.7-7.5,3.4-11.4C80.2,49.8,80.3,45.9,79.9,42z M5.1,26.1c-0.8,0-1.5-0.7-1.5-1.5s0.7-1.5,1.5-1.5s1.5,0.7,1.5,1.5
			S6,26.1,5.1,26.1z M17.7,17.3c-1.4,0-2.5-1.1-2.5-2.5s1.1-2.5,2.5-2.5s2.5,1.1,2.5,2.5C20.2,16.2,19.1,17.3,17.7,17.3
			C17.7,17.3,17.7,17.3,17.7,17.3z M35.3,27c14.9,0,37,1,37,22L35.3,27z"/>
	</g>
</g>
</svg>
