<?xml version="1.0" encoding="utf-8"?>
<!-- Generator: Adobe Illustrator 24.1.1, SVG Export Plug-In . SVG Version: 6.00 Build 0)  -->
<svg version="1.1" id="Layer_1" xmlns="http://www.w3.org/2000/svg"
     xmlns:xlink="http://www.w3.org/1999/xlink" x="0px" y="0px"
     viewBox="0 0 70.6 81.9" style="enable-background:new 0 0 70.6 81.9;" xml:space="preserve">
<style type="text/css">
	.st0{fill:#FFFFFF;}
</style>
  <g id="Layer_2_1_">
	<g id="RAW">
		<path class="st0" d="M70.6,1.5c0-0.8-0.7-1.5-1.5-1.5c-0.3,0-0.6,0.1-0.9,0.3L56.9,8C44.2-1.9,26.4-1.9,13.6,8L2.3,0.3
			C1.7-0.2,0.7,0,0.3,0.6C0.1,0.9,0,1.2,0,1.5l0.1,32.4c-0.1,1.4-0.1,2.8,0,4.2v0.1c0,0,0,0,0,0.1c0.5,7.1,3.1,13.9,7.5,19.5
			l18.2,19l0,0c4.7,5.9,13.2,6.9,19.1,2.2c0.8-0.7,1.6-1.4,2.2-2.2l0,0l16-19c4.4-5.6,7-12.3,7.5-19.4c0,0,0-0.1,0-0.1V38
			c0.1-1.4,0.1-2.8,0-4.2L70.6,1.5z M13,24.4c0,0.8-0.7,1.5-1.5,1.5S10,25.2,10,24.4v-9.9c0-0.8,0.7-1.5,1.5-1.5s1.5,0.7,1.5,1.5
			V24.4z M47.8,11.6c0-0.8,0.7-1.5,1.5-1.5s1.5,0.7,1.5,1.5v4.9c0,0.8-0.7,1.5-1.5,1.5s-1.5-0.7-1.5-1.5V11.6z M38.5,5.2
			c0-0.8,0.7-1.5,1.5-1.5s1.5,0.7,1.5,1.5v4.9c0,0.8-0.7,1.5-1.5,1.5s-1.5-0.7-1.5-1.5V5.2z M30.3,11.6c0-0.8,0.7-1.5,1.5-1.5
			s1.5,0.7,1.5,1.5v7.9c0,0.8-0.7,1.5-1.5,1.5s-1.5-0.7-1.5-1.5V11.6z M35.3,32.2l6.1,10.6H29.2L35.3,32.2z M19.5,10.6
			c0-0.8,0.7-1.5,1.5-1.5s1.5,0.7,1.5,1.5v3.9c0,0.8-0.7,1.5-1.5,1.5s-1.5-0.7-1.5-1.5V10.6z M16.4,31.8c0-1.4,1.1-2.5,2.5-2.5
			s2.5,1.1,2.5,2.5c0,1.4-1.1,2.5-2.5,2.5C17.5,34.3,16.4,33.1,16.4,31.8C16.4,31.8,16.4,31.8,16.4,31.8z M50.2,54.3l-6.1,8l-2-7.5
			H28.6l-2,7.5l-6.1-8h0.1c-0.3-0.3-0.4-0.6-0.4-1c0-0.8,0.7-1.5,1.5-1.5h27c0.8,0,1.5,0.7,1.5,1.5c0,0.4-0.1,0.7-0.4,1H50.2z
			 M51.7,34.3c-1.4,0-2.5-1.1-2.5-2.5c0-1.4,1.1-2.5,2.5-2.5s2.5,1.1,2.5,2.5C54.2,33.1,53.1,34.2,51.7,34.3
			C51.7,34.3,51.7,34.3,51.7,34.3z M59.8,22.4c0,0.8-0.7,1.5-1.5,1.5s-1.5-0.7-1.5-1.5v-7.9c0-0.8,0.7-1.5,1.5-1.5s1.5,0.7,1.5,1.5
			V22.4z"/>
	</g>
</g>
</svg>
