<?xml version="1.0" encoding="utf-8"?>
<!-- Generator: Adobe Illustrator 24.1.1, SVG Export Plug-In . SVG Version: 6.00 Build 0)  -->
<svg version="1.1" id="Layer_1" xmlns="http://www.w3.org/2000/svg"
     xmlns:xlink="http://www.w3.org/1999/xlink" x="0px" y="0px"
     viewBox="0 0 102.4 65.8" style="enable-background:new 0 0 102.4 65.8;" xml:space="preserve">
<style type="text/css">
	.st0{fill:#FFFFFF;}
</style>
  <g id="Layer_2_1_">
	<g id="RAW">
		<path class="st0" d="M81.9,0h-44L8.8,24c-1.3,0.8-2.5,1.8-3.5,2.9l-0.1,0l0,0C2.3,30,0.5,33.8,0.1,38h65.5l-5.5,9.6l-5.5-9.5
			l-5.5,9.5l-5.5-9.5l-5.5,9.5l-5.5-9.5l-5.5,9.5l-5.5-9.5l-5.5,9.5L11,38.1l-5.5,9.5l-5.4-9.5C0,38.8,0,39.4,0,40
			c0,9.7,7.3,17.8,17,18.9c0.3,0.1,0.7,0.1,1,0.1h36.4c5.2,4.4,11.8,6.8,18.7,6.8h29.3V20.5L81.9,0z M16.9,21.1l0.1-0.1L16.9,21.1
			L16.9,21.1z M48.6,17.6c-1.5,0-2.6-1.2-2.6-2.6c0-1.5,1.2-2.6,2.6-2.6c1.5,0,2.6,1.2,2.6,2.6c0,0,0,0,0,0
			C51.2,16.4,50.1,17.6,48.6,17.6z M74.7,12.3c1.5,0,2.6,1.2,2.6,2.6c0,1.5-1.2,2.6-2.6,2.6c-1.4,0-2.6-1.1-2.6-2.6
			C72.1,13.5,73.2,12.3,74.7,12.3C74.7,12.3,74.7,12.3,74.7,12.3z M78.2,46.3c-4.1,0-7.5-3.4-7.5-7.5s3.4-7.5,7.5-7.5
			s7.5,3.4,7.5,7.5l0,0C85.7,43,82.3,46.3,78.2,46.3C78.2,46.3,78.2,46.3,78.2,46.3L78.2,46.3z"/>
	</g>
</g>
</svg>
