<?xml version="1.0" encoding="utf-8"?>
<!-- Generator: Adobe Illustrator 24.1.1, SVG Export Plug-In . SVG Version: 6.00 Build 0)  -->
<svg version="1.1" id="Layer_1" xmlns="http://www.w3.org/2000/svg"
     xmlns:xlink="http://www.w3.org/1999/xlink" x="0px" y="0px"
     viewBox="0 0 108.8 90.6" style="enable-background:new 0 0 108.8 90.6;" xml:space="preserve">
<style type="text/css">
	.st0{fill:#FFFFFF;}
</style>
  <g id="Layer_2_1_">
	<g id="RAW">
		<path class="st0" d="M91.4,67.3c-0.6-18-5.5-38.2-21.2-50.8C70,11,77.9,6.8,78,6.7c1.2-0.6,1.7-2.2,1.1-3.4
			c-0.3-0.5-0.7-0.9-1.3-1.2C74.3,0.8,70.5,0,66.8,0c-6.3,0-12.4,2.3-17.1,6.5c-7-1.7-14.1-2.6-21.3-2.5c-7.5,0-17.5,6-17.5,13.5
			v3.6c0,0,0.2,2.6,0.4,4.9H2.5C1.1,26,0,27.1,0,28.5S1.1,31,2.5,31h12.8c6.6,0.1,13.2,0.6,19.8,1.4l9.8,9.8
			c0.5,0.5,1.1,0.7,1.8,0.7c0.3,0,0.7-0.1,1-0.2c0.9-0.4,1.6-1.3,1.5-2.3v-5.1c24.4,6.8,33.9,20.4,35.2,32.8
			c-2.6,0.1-12.2,1.2-15.4,11.4l-3.2,10c0,0,16.2,5.8,22.5-10.2c5.7,15.1,20.5,10.1,20.5,10.1c-0.1-0.4-0.7-2.4-2.8-10.1
			C103.3,69.4,94.4,67.6,91.4,67.3z M21.4,20.1c-1.4,0-2.5-1.1-2.5-2.5s1.1-2.5,2.5-2.5s2.5,1.1,2.5,2.5
			C23.9,19,22.8,20.1,21.4,20.1C21.4,20.1,21.4,20.1,21.4,20.1L21.4,20.1z"/>
	</g>
</g>
</svg>
