<?xml version="1.0" encoding="utf-8"?>
<!-- Generator: Adobe Illustrator 24.1.1, SVG Export Plug-In . SVG Version: 6.00 Build 0)  -->
<svg version="1.1" id="Layer_1" xmlns="http://www.w3.org/2000/svg"
     xmlns:xlink="http://www.w3.org/1999/xlink" x="0px" y="0px"
     viewBox="0 0 101.7 83.4" style="enable-background:new 0 0 101.7 83.4;" xml:space="preserve">
<style type="text/css">
	.st0{fill:#FFFFFF;}
</style>
  <g id="Layer_2_1_">
	<g id="RAW">
		<path class="st0" d="M85.5,38.4H45.9V17.7C45.9,7.9,38,0,28.3,0c-8.1,0-15.1,5.4-17.1,13.2H0c0,5.8,3.8,10.6,9.6,10.6
			c0.7,0,1.3-0.1,2-0.2l0.1,0.3l0,0v15.6l0,0C12,64.3,32.3,84.2,57.2,83.9C82,83.7,102,63.3,101.7,38.4l0,0V27
			c-0.2-1.4-1.5-2.3-2.9-2c-0.6,0.1-1.2,0.4-1.6,0.9L85.5,38.4 M23.3,19.4c-1.7,0-3.1-1.4-3.1-3.1s1.4-3.1,3.1-3.1
			c1.7,0,3.1,1.4,3.1,3.1v0C26.4,18,25,19.4,23.3,19.4L23.3,19.4z"/>
	</g>
</g>
</svg>
