<?xml version="1.0" encoding="utf-8"?>
<!-- Generator: Adobe Illustrator 24.1.1, SVG Export Plug-In . SVG Version: 6.00 Build 0)  -->
<svg version="1.1" id="Layer_1" xmlns="http://www.w3.org/2000/svg"
     xmlns:xlink="http://www.w3.org/1999/xlink" x="0px" y="0px"
     viewBox="0 0 99.2 73" style="enable-background:new 0 0 99.2 73;" xml:space="preserve">
<style type="text/css">
	.st0{fill:#FFFFFF;}
</style>
  <g id="Layer_2_1_">
	<g id="RAW">
		<path class="st0" d="M91.2,46.6C91.2,56.8,83,65,72.9,65c-4.7,0-9.2-1.8-12.7-5c5.4-2.6,9.9-6.8,12.8-12
			c23.8-0.4,22.7-30.1,22.7-30.1C95.7,8,87.7,0,77.8,0c-6.3,0-12.1,3.3-15.3,8.6c-9-5.4-20.3-5.5-29.5-0.3C27.8,0,16.7-2.5,8.4,2.8
			c-5.2,3.3-8.3,9-8.3,15.1c0,0-2.2,30.1,22,30.1l0,0c4.7,8.3,13.1,13.8,22.6,14.8c-2.8-4.9-4.3-10.5-4.3-16.1c0-1.7,1.3-3,3-3
			s3,1.3,3,3C46.5,61.2,58.3,73,72.8,73c14.6,0,26.4-11.8,26.4-26.4H91.2z M64.1,25.8c1.5,0,2.6,1.2,2.6,2.6c0,1.5-1.2,2.6-2.6,2.6
			c-1.4,0-2.6-1.2-2.6-2.6C61.5,26.9,62.7,25.8,64.1,25.8C64.1,25.8,64.1,25.8,64.1,25.8z M32.9,31c-1.5,0-2.6-1.2-2.6-2.6
			s1.2-2.6,2.6-2.6c1.5,0,2.6,1.2,2.6,2.6c0,0,0,0,0,0C35.5,29.8,34.3,31,32.9,31z"/>
	</g>
</g>
</svg>
