<?xml version="1.0" encoding="utf-8"?>
<!-- Generator: Adobe Illustrator 24.1.1, SVG Export Plug-In . SVG Version: 6.00 Build 0)  -->
<svg version="1.1" id="Layer_1" xmlns="http://www.w3.org/2000/svg"
     xmlns:xlink="http://www.w3.org/1999/xlink" x="0px" y="0px"
     viewBox="0 0 69.9 102.1" style="enable-background:new 0 0 69.9 102.1;" xml:space="preserve">
<style type="text/css">
	.st0{fill:#FFFFFF;}
</style>
  <g id="Layer_2_1_">
	<g id="RAW">
		<path class="st0" d="M68.1,96.1L68.1,96.1c-2.5-0.3-5-1-7.3-2.1c-2.2-1.1-4.3-2.5-6.1-4.2c-1.8-1.7-3.4-3.5-4.8-5.6
			c-0.7-1-1.3-2.1-1.9-3.2c-0.3-0.5-0.5-1.1-0.8-1.6L47,78.7c0,0,0-0.1,0-0.1l-0.1-0.4l0,0l-0.3-0.9c0-0.2-0.1-0.4-0.2-0.5l-6-19.8
			V11.4l0.1-11.3c-7-1-8.2,6.5-8.2,6.5V9L22.1,6c-0.5-0.2-1-0.3-1.6-0.3c-2.5,0-4.5,2-4.6,4.5c0,0.9,0.3,1.7,0.7,2.4l0,0l5.4,13.5
			L22,30.7c-0.3,1.3-0.7,3.1-1.1,5.2l-8.6,4.6c-1.7,0.9-2.3,3-1.4,4.7c0.6,1.1,1.8,1.8,3.1,1.8c0.6,0,1.2-0.1,1.7-0.4l3.9-2.1
			c-0.7,6.2-1,12.5-0.8,18.8c-4.9,1-8.1,5.9-7.1,10.8c0.1,0.6,0.3,1.1,0.5,1.7l3,14.7H5.8c-3.2-0.1-5.9,2.3-6,5.5s2.3,5.9,5.5,6
			c0.2,0,0.3,0,0.5,0h23.6c6.7,0,12.9-3.7,16.2-9.6c1.5,1.3,3.2,2.5,4.9,3.5c2.7,1.6,5.6,2.7,8.6,3.5c3,0.7,6,0.9,9.1,0.6
			c1.1,0,2-0.9,2-2S69.2,96.1,68.1,96.1L68.1,96.1z M29.8,18.1c-1.4,0-2.5-1.1-2.5-2.5s1.1-2.5,2.5-2.5s2.5,1.1,2.5,2.5
			C32.2,17,31.1,18.1,29.8,18.1L29.8,18.1z"/>
	</g>
</g>
</svg>
