<?xml version="1.0" encoding="utf-8"?>
<!-- Generator: Adobe Illustrator 24.1.1, SVG Export Plug-In . SVG Version: 6.00 Build 0)  -->
<svg version="1.1" id="Layer_1" xmlns="http://www.w3.org/2000/svg"
     xmlns:xlink="http://www.w3.org/1999/xlink" x="0px" y="0px"
     viewBox="0 0 99 104" style="enable-background:new 0 0 99 104;" xml:space="preserve">
<style type="text/css">
	.st0{fill:#FFFFFF;}
</style>
  <g id="Layer_2_1_">
	<g id="RAW">
		<path class="st0" d="M99,83.6c0-0.3-4.5-27.2-10.3-55.9c-1.2-6-0.7-10.6,1.5-13.8c1.4-2,3.5-3.4,5.8-3.9c1.3-0.2,2.1-1.4,1.9-2.7
			c-0.2-1.1-1.1-1.9-2.3-2H81.3c-9.7,0-17.7,7.9-17.7,17.6v61.1L50.3,34.8h10.9L49,21.4V2.4C49,1.1,47.9,0,46.5,0
			c-0.9,0-1.8,0.6-2.2,1.4l0,0l-6.5,12.9V2.4c0-1.3-1.1-2.4-2.5-2.4c-0.9,0-1.8,0.6-2.2,1.4l0,0l-7.6,15c-0.3,0.1-19,0-19,0
			c-0.1-1.7-1.6-3-3.3-2.9c-1.7,0.1-3,1.6-2.9,3.3c0.1,1.7,1.6,3,3.3,2.9c0.9-0.1,1.8-0.5,2.3-1.3l9.2,9.8l-5.9,6.5H20v29
			c-6.2,1.5-10.5,7-10.5,13.3c0,0.2,0,0.3,0,0.4l-0.3,0.3v18.6H3.8c-2.1,0.1-3.7,1.9-3.6,4c0.1,2,1.7,3.5,3.6,3.6H47h0.3h34
			c8.9,0.1,16.5-6.6,17.6-15.4c0.1-0.3,0.2-0.5,0.2-0.8V84C99,83.9,99,83.8,99,83.6z M36,30.9c0,5.1-4.1,9.2-9.2,9.2h-2.7v-4h2.6
			c2.9,0,5.2-2.3,5.2-5.2v-3.8h4L36,30.9z M34.6,23.1c-1.5,0-2.6-1.2-2.6-2.6s1.2-2.6,2.6-2.6c1.5,0,2.6,1.2,2.6,2.6
			C37.2,21.9,36.1,23.1,34.6,23.1C34.6,23.1,34.6,23.1,34.6,23.1L34.6,23.1z"/>
	</g>
</g>
</svg>
