<?xml version="1.0" encoding="utf-8"?>
<!-- Generator: Adobe Illustrator 24.1.1, SVG Export Plug-In . SVG Version: 6.00 Build 0)  -->
<svg version="1.1" id="Layer_1" xmlns="http://www.w3.org/2000/svg"
     xmlns:xlink="http://www.w3.org/1999/xlink" x="0px" y="0px"
     viewBox="0 0 100.8 65.8" style="enable-background:new 0 0 100.8 65.8;" xml:space="preserve">
<style type="text/css">
	.st0{fill:#FFFFFF;}
</style>
  <g id="Layer_2_1_">
	<g id="RAW">
		<circle class="st0" cx="30.7" cy="54.4" r="7.7"/>
    <path class="st0" d="M78.4,8.7C74.9,1.2,66-2.1,58.6,1.4c-2.9,1.3-5.2,3.5-6.8,6.3c-4-7.2-13.1-9.8-20.3-5.8
			c-2.6,1.4-4.7,3.6-6,6.2C9.6,9.9-1.8,24.3,0,40.2c1.6,14.2,13.4,25.1,27.8,25.6l0,0h45l0,0c16-0.5,28.5-13.9,28-29.9
			C100.4,22.8,91.2,11.6,78.4,8.7z M64.8,12.3c1.5,0,2.6,1.2,2.6,2.6c0,1.5-1.2,2.6-2.6,2.6c-1.4,0-2.6-1.1-2.6-2.6
			C62.2,13.5,63.3,12.3,64.8,12.3C64.8,12.3,64.8,12.3,64.8,12.3z M38.8,12.3c1.5,0,2.6,1.2,2.6,2.6s-1.2,2.6-2.6,2.6
			c-1.4,0-2.6-1.1-2.6-2.6C36.1,13.5,37.2,12.3,38.8,12.3C38.7,12.3,38.7,12.3,38.8,12.3z M70.6,39.1c-4,10.4-15.7,15.5-26.1,11.5
			c-5.2-2-9.4-6.1-11.4-11.3c-3.7-0.6-6.3-4.1-5.6-7.8c0.6-3.7,4.1-6.3,7.8-5.6s6.3,4.1,5.6,7.8c-0.3,1.8-1.3,3.5-2.8,4.5
			c3.5,7.6,12.5,10.9,20.1,7.5c3.2-1.5,5.7-3.9,7.3-7.1c-3.3-1.8-4.5-6-2.7-9.3c1.8-3.3,6-4.5,9.3-2.7c3.3,1.8,4.5,6,2.7,9.3
			C73.9,37.4,72.4,38.6,70.6,39.1L70.6,39.1z"/>
	</g>
</g>
</svg>
