<?xml version="1.0" encoding="utf-8"?>
<!-- Generator: Adobe Illustrator 24.1.1, SVG Export Plug-In . SVG Version: 6.00 Build 0)  -->
<svg version="1.1" id="Layer_1" xmlns="http://www.w3.org/2000/svg"
     xmlns:xlink="http://www.w3.org/1999/xlink" x="0px" y="0px"
     viewBox="0 0 104.6 113.1" style="enable-background:new 0 0 104.6 113.1;" xml:space="preserve">
<style type="text/css">
	.st0{fill:#FFFFFF;}
</style>
  <g id="Layer_2_1_">
	<g id="RAW">
		<path class="st0" d="M104.5,111.2l-15-43.3v-6.7c-0.1-0.8-0.9-1.3-1.7-1.2c-0.4,0.1-0.7,0.3-0.9,0.6L83,64.7
			c-8.7-3.3-20.4-7-28.8-9.5c0,0.4-0.1,0.8-0.2,1.2l0.2-1.2l-10.3-4L26.7,12.6V4.3c-0.1-0.9-0.8-1.5-1.7-1.4c-0.6,0-1.1,0.4-1.3,1
			h-0.1l-3,6.1h-0.2l-3.3-6.1c0.6-1.4-0.2-3.1-1.6-3.6s-3.1,0.2-3.6,1.6s0.2,3.1,1.6,3.6c0.3,0.1,0.7,0.2,1,0.2h0.2l2.6,4.9L5,12.4
			c-0.2,0-0.4,0.1-0.6,0.2c-2.8,0.4-4.8,3-4.4,5.8c0.4,2.6,2.5,4.5,5.1,4.5h10.8l10.3,41.4l-9.6,47c-0.2,0.8,0.4,1.6,1.2,1.8
			c0.1,0,0.2,0,0.3,0H24c0.6,0,1.1-0.4,1.4-0.9l11.8-27.4h44l12.7,27.5c0.2,0.5,0.8,0.9,1.4,0.9h7.9c0.5,0,0.9-0.2,1.2-0.6
			C104.6,112.1,104.6,111.6,104.5,111.2z M20.5,19c-1.7,0-3.1-1.4-3.1-3.1c0-1.7,1.4-3.1,3.1-3.1c1.7,0,3.1,1.4,3.1,3.1c0,0,0,0,0,0
			C23.6,17.6,22.2,19,20.5,19z M38.1,72c-2.4,0-4.4-2-4.4-4.4s2-4.4,4.4-4.4s4.4,2,4.4,4.4l0,0C42.6,70,40.6,72,38.1,72
			C38.2,72.1,38.1,72.1,38.1,72L38.1,72z M69.1,81.6h-9.7c-4.9,0-8.9-4-8.9-8.9s4-8.9,8.9-8.9h9.7c4.9,0,8.9,4,8.9,8.9
			S73.9,81.6,69.1,81.6z"/>
	</g>
</g>
</svg>
