<?xml version="1.0" encoding="utf-8"?>
<!-- Generator: Adobe Illustrator 24.1.1, SVG Export Plug-In . SVG Version: 6.00 Build 0)  -->
<svg version="1.1" id="Layer_1" xmlns="http://www.w3.org/2000/svg"
     xmlns:xlink="http://www.w3.org/1999/xlink" x="0px" y="0px"
     viewBox="0 0 104.8 79.5" style="enable-background:new 0 0 104.8 79.5;" xml:space="preserve">
<style type="text/css">
	.st0{fill:none;}
	.st1{fill:#FFFFFF;}
</style>
  <g id="Layer_2_1_">
	<g id="RAW">
		<path class="st0" d="M6,62.6c0,3,7,6.9,19,9.4V53.2C13,55.7,6,59.6,6,62.6z"/>
    <path class="st0" d="M98.8,62.6c0-3.2-7.7-7.3-20.8-9.8v19.6C91.1,69.9,98.8,65.8,98.8,62.6z"/>
    <path class="st1" d="M78,45.6v-5.3L77.7,7c0-3.9-3.1-7-7-7s-7,3.1-7,7v1.3c-7.7-3.7-16.7-3.6-24.2,0.3V7c0-3.9-3.1-7-7-7
			s-7,3.1-7,7L25,40.4V46C10.6,48.8,0,54,0,61.5S10.6,74.2,25,77c9,1.7,18.2,2.5,27.4,2.4c8.6,0,17.2-0.7,25.6-2.1
			c15.3-2.7,26.8-8.1,26.8-15.9S93.3,48.4,78,45.6z M65.7,19.3c1.3,0,2.3,1,2.3,2.3c0,1.3-1,2.3-2.3,2.3c-1.3,0-2.3-1-2.3-2.3
			c0,0,0,0,0,0C63.3,20.4,64.4,19.3,65.7,19.3C65.6,19.3,65.6,19.3,65.7,19.3z M43.4,24.6h17.1c1.9,0,2.7,1.4,1.8,3L54,42.1v5.7
			c2-0.4,3.8-1.5,5.1-3c0.6-0.8,1.7-0.9,2.5-0.3s0.9,1.7,0.3,2.5c0,0.1-0.1,0.1-0.2,0.2c-1.3,1.4-2.8,2.5-4.5,3.3
			c0,0.2,0,0.4-0.1,0.5l-1.2,4.4c-0.5,1.5-1.8,2.5-3.3,2.5h-1.3c-1.5-0.1-2.8-1.1-3.3-2.5l-1.2-4.4c0-0.2-0.1-0.3-0.1-0.5
			c-1.7-0.7-3.3-1.9-4.5-3.3c-0.6-0.8-0.5-1.9,0.3-2.5c0.7-0.5,1.7-0.5,2.3,0.1c1.5,1.7,3.5,2.8,5.8,3.1V43
			c-0.1-0.1-0.2-0.3-0.3-0.4l-8.6-15C40.7,26,41.5,24.6,43.4,24.6z M38.2,19.3c1.3,0,2.3,1,2.3,2.3c0,1.3-1,2.3-2.3,2.3
			s-2.3-1-2.3-2.3c0,0,0,0,0,0C35.9,20.4,36.9,19.3,38.2,19.3C38.2,19.3,38.2,19.3,38.2,19.3z M6,61.5c0-3,7-6.9,19-9.4v18.9
			C13,68.4,6,64.5,6,61.5z M78,71.3V51.7c13.2,2.5,20.8,6.6,20.8,9.8C98.8,64.7,91.1,68.8,78,71.3z"/>
	</g>
</g>
</svg>
