<?xml version="1.0" encoding="utf-8"?>
<!-- Generator: Adobe Illustrator 24.1.1, SVG Export Plug-In . SVG Version: 6.00 Build 0)  -->
<svg version="1.1" id="Layer_1" xmlns="http://www.w3.org/2000/svg"
     xmlns:xlink="http://www.w3.org/1999/xlink" x="0px" y="0px"
     viewBox="0 0 100.4 94.9" style="enable-background:new 0 0 100.4 94.9;" xml:space="preserve">
<style type="text/css">
	.st0{fill:#FFFFFF;}
</style>
  <g id="Layer_2_1_">
	<g id="RAW">
		<path class="st0" d="M100.4,53.4c0-7.7-3-15-8.4-20.5l0,0l-4.4-4.4c7.7-2,12.4-9.9,10.4-17.6c-2-7.7-9.9-12.4-17.6-10.4
			C75.3,1.8,71.3,5.8,70,10.9C58.9,0.6,41.8,0.6,30.6,10.8C28.5,3,20.6-1.6,12.8,0.5S0.5,10.5,2.6,18.2c1.3,5,5.2,8.9,10.2,10.2
			l-4.4,4.4h0C-2.9,44.4-2.8,62.8,8.7,74.1c3.2,3.2,7.2,5.6,11.5,7l30,13.9l30.3-14c1.9-0.7,3.8-1.5,5.6-2.6l0,0
			C94.9,73.2,100.4,63.7,100.4,53.4z M26,15.2L17.3,24c-0.2,0-0.5,0-0.7,0c-5.2,0-9.5-4.2-9.5-9.5c0-5.2,4.2-9.5,9.5-9.5
			c5.2,0,9.5,4.2,9.5,9.5c0,0,0,0,0,0C26.1,14.7,26,15,26,15.2z M30.1,37.4c-1.7,0-3-1.3-3-3s1.3-3,3-3s3,1.3,3,3
			C33.1,36.1,31.8,37.4,30.1,37.4L30.1,37.4z M56,64.3c-2.5,0-4.9-1.1-6.5-3c-1.6,1.9-4,3-6.5,3c-4.6,0-8.5-3.7-8.5-8.4
			c0-1.1,0.9-2,2-2s2,0.9,2,2c0.1,2.5,2.2,4.4,4.7,4.3c2.1-0.1,3.8-1.5,4.3-3.6l-5.9-10.2h16l-6,10.4c0.6,2.4,3.1,3.9,5.5,3.3
			c1.9-0.5,3.3-2.2,3.4-4.2c0-1.1,0.9-2,2-2c1.1,0,2,0.9,2,2C64.4,60.6,60.6,64.3,56,64.3z M71.1,37.4c-1.7,0-3-1.3-3-3s1.3-3,3-3
			s3,1.3,3,3S72.8,37.4,71.1,37.4z M84,24c-0.3,0-0.7,0-1,0l-8.5-8.5c0-0.3-0.1-0.6-0.1-1c0-5.2,4.2-9.5,9.5-9.5
			c5.2,0,9.5,4.2,9.5,9.5C93.5,19.7,89.2,24,84,24z"/>
	</g>
</g>
</svg>
