<?xml version="1.0" encoding="utf-8"?>
<!-- Generator: Adobe Illustrator 24.1.1, SVG Export Plug-In . SVG Version: 6.00 Build 0)  -->
<svg version="1.1" id="Layer_1" xmlns="http://www.w3.org/2000/svg"
     xmlns:xlink="http://www.w3.org/1999/xlink" x="0px" y="0px"
     viewBox="0 0 110.8 81" style="enable-background:new 0 0 110.8 81;" xml:space="preserve">
<style type="text/css">
	.st0{fill:#FFFFFF;}
</style>
  <g id="Layer_2_1_">
	<g id="RAW">
		<path class="st0" d="M98.3,22.2V4.8c0-5.5-2.8-6.5-6.2-2.1l-9.6,12.2v-10c0-5.5-2.8-6.5-6.2-2.1l-9.8,12.4h-0.4V4.8
			c0-5.5-2.8-6.5-6.2-2.1L50.4,15h-0.5V4.8c0-5.5-2.8-6.5-6.2-2.1L7.7,43.1c-1.4-1.9-4.1-2.2-6-0.8c-1.9,1.4-2.2,4.1-0.8,6
			c1.4,1.9,4.1,2.2,6,0.8c0.3-0.2,0.5-0.4,0.7-0.7l16,19.4c0.6,0.8,1.2,1.5,1.8,2.2l0,0l0,0c6,6.7,14.5,10.7,23.5,10.9l0,0h30.3l0,0
			c18.2-0.8,32.3-16.2,31.5-34.4C110.3,37,105.8,28.1,98.3,22.2L98.3,22.2z M22.3,47.3c-1.5,0-2.6-1.2-2.6-2.7
			c0-1.5,1.2-2.6,2.7-2.6c1.4,0,2.6,1.2,2.6,2.6C25,46.1,23.8,47.3,22.3,47.3C22.4,47.3,22.3,47.3,22.3,47.3L22.3,47.3z M38.2,61.1
			c-4.1,0-7.5-3.4-7.5-7.5s3.4-7.5,7.5-7.5s7.5,3.4,7.5,7.5l0,0C45.7,57.8,42.4,61.1,38.2,61.1z"/>
	</g>
</g>
</svg>
