<?xml version="1.0" encoding="utf-8"?>
<!-- Generator: Adobe Illustrator 24.1.1, SVG Export Plug-In . SVG Version: 6.00 Build 0)  -->
<svg version="1.1" id="Layer_1" xmlns="http://www.w3.org/2000/svg"
     xmlns:xlink="http://www.w3.org/1999/xlink" x="0px" y="0px"
     viewBox="0 0 96.9 70.1" style="enable-background:new 0 0 96.9 70.1;" xml:space="preserve">
<style type="text/css">
	.st0{fill:#FFFFFF;}
</style>
  <g id="Layer_2_1_">
	<g id="RAW">
		<path class="st0" d="M90.1,26.6c-0.4-6-2.8-11.7-6.8-16.2c2.6-1.7,3.4-5.2,1.7-7.8s-5.2-3.4-7.8-1.7c-1.1,0.7-2,1.8-2.4,3.1
			C61.4-2.5,45.2,3.1,38.7,16.6c-0.3,0.5-0.5,1.1-0.7,1.6H27l0,0c-0.4,0-0.8,0-1.1,0C11.6,18.5,0.2,30.3,0.5,44.7
			c0.3,13.9,11.5,25.1,25.4,25.4c0.4,0,0.8,0,1.1,0l0,0h0.7c5.8-2.4,10.2-7.2,12.2-13.2c-3.3-2-4.4-6.3-2.4-9.6s6.3-4.4,9.6-2.4
			s4.4,6.3,2.4,9.6c-1,1.7-2.7,2.9-4.6,3.2c-1.4,4.8-4.2,9-7.9,12.3h36.3V70c14.3-1.2,24.8-13.8,23.6-28
			C96.4,36.2,94,30.8,90.1,26.6z M8,38.3c-1.2,0-2.2-1-2.2-2.2c0-1.2,1-2.2,2.2-2.2c1.2,0,2.2,1,2.2,2.2c0,0,0,0,0,0
			C10.2,37.3,9.2,38.3,8,38.3C8,38.3,8,38.3,8,38.3z M59.3,22.4c-1.9,0-3.4-1.5-3.4-3.3c0-1.9,1.5-3.4,3.3-3.4
			c1.9,0,3.4,1.5,3.4,3.3c0,0,0,0,0,0C62.7,20.9,61.2,22.4,59.3,22.4C59.3,22.4,59.3,22.4,59.3,22.4L59.3,22.4z"/>
	</g>
</g>
</svg>
