<?xml version="1.0" encoding="utf-8"?>
<!-- Generator: Adobe Illustrator 24.1.1, SVG Export Plug-In . SVG Version: 6.00 Build 0)  -->
<svg version="1.1" id="Layer_1" xmlns="http://www.w3.org/2000/svg"
     xmlns:xlink="http://www.w3.org/1999/xlink" x="0px" y="0px"
     viewBox="0 0 102.3 87" style="enable-background:new 0 0 102.3 87;" xml:space="preserve">
<style type="text/css">
	.st0{fill:#FFFFFF;}
</style>
  <g id="Layer_2_1_">
	<g id="RAW">
		<path class="st0" d="M90,0c-9.3,2.8-14.5,12.6-11.6,21.9c0,0,0,0.1,0,0.1H59.5c2.9-9.2-2.2-19-11.4-22c0,0-0.1,0-0.1,0
			c-9.3,2.9-14.4,12.7-11.6,21.9c0.9,2.8,2.4,5.4,4.6,7.4L10.4,48.6l0,0C3.9,52.3,0,59.1,0,66.5c0,0.2,0,0.4,0,0.6h76.9l-5,8.7
			l-5-8.7l-5,8.7l-5-8.7l-5,8.7l-5-8.7l-5,8.7l-5-8.7l-5,8.7l-5-8.7l-5,8.7l-5-8.7l-5,8.7l-5-8.7L2,75.4C5.5,82.5,12.6,87,20.5,87
			h72.1V32.5c8.7-4.3,12.2-14.8,8-23.5C98.4,4.7,94.6,1.4,90,0z M15.3,57l5.8-8l5.8,8H15.3z M42.1,42.6c-1.4,0-2.5-1.1-2.5-2.5
			s1.1-2.5,2.5-2.5s2.5,1.1,2.5,2.5C44.6,41.5,43.5,42.6,42.1,42.6C42.1,42.6,42.1,42.6,42.1,42.6L42.1,42.6z M70.1,42.6
			c-1.4,0-2.5-1.1-2.5-2.5s1.1-2.5,2.5-2.5s2.5,1.1,2.5,2.5C72.6,41.5,71.5,42.6,70.1,42.6C70.1,42.6,70,42.6,70.1,42.6L70.1,42.6z"
    />
	</g>
</g>
</svg>
