<?xml version="1.0" encoding="utf-8"?>
<!-- Generator: Adobe Illustrator 24.1.1, SVG Export Plug-In . SVG Version: 6.00 Build 0)  -->
<svg version="1.1" id="Layer_1" xmlns="http://www.w3.org/2000/svg"
     xmlns:xlink="http://www.w3.org/1999/xlink" x="0px" y="0px"
     viewBox="0 0 90.8 71.7" style="enable-background:new 0 0 90.8 71.7;" xml:space="preserve">
<style type="text/css">
	.st0{fill:#FFFFFF;}
</style>
  <g id="Layer_2_1_">
	<g id="RAW">
		<path class="st0" d="M85.3,26.6c-2.2-2.3-5-4.1-8.1-5.1h0.4L76,21.1c-0.8-0.2-1.5-0.4-2.3-0.5l-38.2-8l3.2-2.3
			c0.7-0.4,1-1.3,0.7-2c-0.4-0.7-1.3-1-2-0.7c-0.1,0.1-0.3,0.2-0.4,0.3l-5.5,3.9l-4.9-1L34,5.3c0.7-0.5,0.9-1.4,0.4-2.1
			c-0.5-0.7-1.4-0.9-2.1-0.4c-0.1,0-0.1,0.1-0.2,0.1L22.7,10l-2.9-0.6C19.2,9.2,18.6,9,18,8.8l8.3-6.1c0.7-0.5,0.8-1.4,0.3-2.1
			s-1.4-0.8-2.1-0.3c0,0,0,0,0,0L10.7,10.5c-0.1,0.1-0.2,0.2-0.3,0.3c-0.2,0.1-0.3,0.3-0.4,0.4l-8.3,6.5l0,0
			c-1.6,0.8-2.2,2.8-1.4,4.4C0.9,23,2,23.7,3.2,23.7h1.2c2.1-0.1,3.8-1.9,3.8-4c0-0.6,0.4-1,1-1s1,0.4,1,1c0,2-1,3.9-2.7,5
			c1.2,1.8,3.3,3,5.5,3.1l13.2,0.7l-3,8.9H20c-1.3,0.1-2.3,1.2-2.2,2.5c0.1,1.2,1,2.1,2.2,2.2h8.1l8.3-13.1L53,30
			c-0.2,0.8-0.3,1.7-0.3,2.5c0,2.1,0.6,4.2,1.8,6h-3.2c-1.3-0.1-2.4,0.9-2.5,2.2c-0.1,1.3,0.9,2.4,2.2,2.5c0.1,0,0.2,0,0.3,0h12.2
			C69.4,43.1,74,38.3,74,32.5c0-0.4,0-0.9-0.1-1.3c1.7,0.4,3.3,1.2,4.6,2.3c2,1.8,3.2,4.4,3.4,7.1c0.2,2.8-0.8,5.6-2.7,7.7
			c-1.9,2.2-4.6,3.5-7.6,3.7l-23.3,0.8h-0.8c-0.3,0-0.5,0-0.8,0.1c-0.6,0-1.2,0.1-1.7,0.2c-1.1,0.2-2.2,0.5-3.3,0.9
			c-2.2,0.8-4.2,2-5.9,3.5c-1.7,1.6-3.1,3.5-4,5.6c-0.9,2.1-1.3,4.4-1.2,6.6c0,1.2,1,2.1,2.1,2.1c1.2,0,2.1-1,2.1-2.1
			c0.1-3.3,1.6-6.4,4.2-8.4c1.3-1,2.7-1.7,4.3-2.2c0.8-0.2,1.6-0.4,2.4-0.5c0.4,0,0.8-0.1,1.2-0.1c0.2,0,0.5,0,0.7,0h0.7l23.4,0.8
			c5,0,9.7-1.9,13.3-5.4c3.6-3.6,5.7-8.4,5.7-13.5C90.8,35.3,88.9,30.3,85.3,26.6z M14.7,20.1c-1.4,0-2.5-1.1-2.5-2.5
			s1.1-2.5,2.5-2.5s2.5,1.1,2.5,2.5S16.1,20.1,14.7,20.1C14.7,20.1,14.7,20.1,14.7,20.1z"/>
	</g>
</g>
</svg>
