<?xml version="1.0" encoding="utf-8"?>
<!-- Generator: Adobe Illustrator 24.1.1, SVG Export Plug-In . SVG Version: 6.00 Build 0)  -->
<svg version="1.1" id="Layer_1" xmlns="http://www.w3.org/2000/svg"
     xmlns:xlink="http://www.w3.org/1999/xlink" x="0px" y="0px"
     viewBox="0 0 89.8 92.1" style="enable-background:new 0 0 89.8 92.1;" xml:space="preserve">
<style type="text/css">
	.st0{fill:#FFFFFF;}
</style>
  <g id="Layer_2_1_">
	<g id="RAW">
		<path class="st0" d="M88.4,7.3c-5.1-0.2-10.2,0.5-15,2.3c-3.2,1.2-6.3,2.8-9.2,4.8c0-0.4,0-0.7,0-1.1c0.1-1.4,0.5-2.7,1.1-3.9
			C66,8,66.9,6.8,67.8,5.8c0.5-0.6,1-1.1,1.6-1.6c0.6-0.5,1.1-0.9,1.8-1.4c0.7-0.5,0.8-1.4,0.4-2.1c-0.4-0.6-1.2-0.8-1.9-0.5h-0.1
			c-0.8,0.4-1.5,0.8-2.3,1.3c-0.7,0.5-1.4,1.1-2.1,1.7c-1.4,1.2-2.5,2.7-3.5,4.3c-1,1.7-1.6,3.5-1.8,5.5c-0.1,1,0,2.1,0.2,3.1
			c0.1,0.4,0.2,0.8,0.4,1.2l-0.4,0.4c-3.9,3.6-7.1,7.9-9.3,12.7c-2,4.2-3.2,8.8-3.6,13.4c-0.6,0-1.2-0.1-1.7-0.1
			c-1,0-2.1,0.1-3.1,0.2c-0.4-4.7-1.6-9.3-3.6-13.5c-2.2-4.8-5.4-9.1-9.3-12.7l-0.4-0.4c0.2-0.4,0.3-0.8,0.4-1.2
			c0.2-1,0.3-2,0.2-3.1C29.6,10.9,29,9.1,28,7.4c-0.9-1.6-2.1-3-3.5-4.3c-0.7-0.6-1.4-1.2-2.1-1.7C21.7,1,21,0.6,20.2,0.2h0
			c-0.8-0.3-1.6,0-2,0.8c-0.3,0.6-0.1,1.3,0.4,1.8c0.7,0.5,1.2,0.9,1.8,1.4c0.6,0.5,1.1,1,1.6,1.6c1,1.1,1.8,2.3,2.5,3.6
			c0.6,1.2,1,2.5,1.1,3.9c0,0.4,0,0.7,0,1.1c-2.8-2-5.9-3.6-9.1-4.8C11.7,7.8,6.6,7,1.5,7.3C0.6,7.3,0,7.9,0,8.8s0.7,1.5,1.5,1.5
			c4.6,0.2,9.1,1.3,13.3,3.3c4.1,1.9,7.8,4.7,10.8,8c3,3.3,5.3,7.1,6.8,11.3c1.5,4.1,2.1,8.5,1.8,12.8v0.4c0,0.1,0,0.2,0,0.2
			c-2.2,1.2-4.3,2.7-6,4.5c0.1-3.8-0.6-7.6-2-11.1c-3.1-7.5-9.3-13.2-17-15.7C2.2,37.6,7.5,54.3,21,61.2c0.3,0.2,0.7,0.3,1,0.5
			c-3.3,13,4.5,26.2,17.5,29.6s26.2-4.5,29.6-17.5c1.1-4.4,1-9-0.3-13.3c12.7-7.4,17.3-23.4,10.6-36.5
			c-10.7,3.5-18.2,13.2-18.9,24.5c-1.5-1.1-3.1-2.1-4.8-2.9c-0.2-4.4,0.4-8.7,1.8-12.8c1.5-4.2,3.8-8,6.8-11.3c3-3.3,6.7-6.1,10.8-8
			c4.2-2,8.7-3.1,13.3-3.3c0.8,0,1.4-0.7,1.4-1.4C89.9,8,89.3,7.3,88.4,7.3C88.4,7.3,88.4,7.3,88.4,7.3z M59.1,67.8c1.7,0,3,1.3,3,3
			s-1.3,3-3,3s-3-1.3-3-3S57.5,67.8,59.1,67.8z M32.9,73.9c-1.7,0-3-1.3-3-3s1.3-3,3-3c1.7,0,3,1.3,3,3S34.6,73.9,32.9,73.9z
			 M53.3,83.2c-4.4,4.3-11.4,4.3-15.8,0c-0.8-0.8-0.8-2,0-2.8s2-0.8,2.8,0c0.8,0.9,1.9,1.5,3.1,1.8v-7.6h-4.5l6.7-11.6l6.7,11.6
			h-4.9v7.6c1.2-0.3,2.2-1,3.1-1.8c0.8-0.8,2-0.8,2.8,0C54,81.1,54,82.4,53.3,83.2z"/>
	</g>
</g>
</svg>
