<?xml version="1.0" encoding="utf-8"?>
<!-- Generator: Adobe Illustrator 24.1.1, SVG Export Plug-In . SVG Version: 6.00 Build 0)  -->
<svg version="1.1" id="Layer_1" xmlns="http://www.w3.org/2000/svg"
     xmlns:xlink="http://www.w3.org/1999/xlink" x="0px" y="0px"
     viewBox="0 0 102.6 99.5" style="enable-background:new 0 0 102.6 99.5;" xml:space="preserve">
<style type="text/css">
	.st0{fill:#FFFFFF;}
</style>
  <g id="Layer_2_1_">
	<g id="RAW">
		<path class="st0" d="M96.5,94.2c-6.5-2-22.4-7.1-24-8.7l-4.2-19.1h-0.2C65.7,56.3,59,42.6,40.5,36.6V2.2c0-1.2-1-2.2-2.2-2.2
			c-0.9,0-1.6,0.5-2,1.3l0,0l-5.5,10.2H5.6c-0.1-1.5-1.5-2.7-3-2.6C1.1,9-0.1,10.3,0,11.9s1.5,2.7,3,2.6c0.7,0,1.3-0.3,1.8-0.8
			l12.1,18.6c2.2-0.7,3.7-2.7,3.7-5v-3h4v3c0,3.6-2.1,6.9-5.4,8.4l5.7,8.8h-8.9c-1.9,0-3.5,1.6-3.5,3.5c0,1.9,1.6,3.5,3.5,3.5h13.4
			l4,6.1h-0.3c-8,0-14.6,6.5-14.6,14.5c0,1.8,0.3,3.6,1,5.3l0,0l0.1,0.2c0.1,0.2,0.1,0.3,0.2,0.5l5.8,13.5H12.7
			c-1.9,0-3.5,1.6-3.5,3.5s1.6,3.5,3.5,3.5h21.2c1,0,2-0.5,2.7-1.3l0,0v-0.1c0.2-0.2,0.4-0.5,0.5-0.8l3.3-5.3
			c4.8,4.6,10.8,8.4,17.2,8.4h44C101.5,99.4,105.9,97,96.5,94.2z M22.4,20.2c-1.3,0-2.4-1.1-2.4-2.4c0-1.3,1.1-2.4,2.4-2.4
			c1.3,0,2.4,1.1,2.4,2.4c0,0,0,0,0,0C24.8,19.1,23.8,20.1,22.4,20.2L22.4,20.2z"/>
	</g>
</g>
</svg>
