<?xml version="1.0" encoding="utf-8"?>
<!-- Generator: Adobe Illustrator 24.1.1, SVG Export Plug-In . SVG Version: 6.00 Build 0)  -->
<svg version="1.1" id="Layer_1" xmlns="http://www.w3.org/2000/svg"
     xmlns:xlink="http://www.w3.org/1999/xlink" x="0px" y="0px"
     viewBox="0 0 95.7 62.9" style="enable-background:new 0 0 95.7 62.9;" xml:space="preserve">
<style type="text/css">
	.st0{fill:#FFFFFF;}
</style>
  <g id="Layer_2_1_">
	<g id="RAW">
		<path class="st0" d="M95.7,17.9C95.7,8,87.7,0,77.8,0c-6.3,0-12.1,3.3-15.3,8.6c-9-5.4-20.3-5.5-29.5-0.3C27.8,0,16.7-2.5,8.4,2.8
			c-5.2,3.3-8.3,9-8.3,15.1c0,0-2.2,30.1,22,30.1l0,0C30,62.1,47.8,67.1,61.8,59.2c4.7-2.6,8.6-6.5,11.2-11.2
			C96.9,47.6,95.7,17.9,95.7,17.9z M32.9,30c-1.5,0-2.6-1.2-2.6-2.6c0-1.5,1.2-2.6,2.6-2.6c1.4,0,2.6,1.2,2.6,2.6
			C35.5,28.8,34.3,30,32.9,30C32.9,30,32.9,30,32.9,30z M56.3,50.1c-3.8,4.2-10.4,4.6-14.6,0.8c-0.3-0.2-0.5-0.5-0.8-0.8
			c-0.7-0.8-0.7-2.1,0.2-2.8s2.1-0.7,2.8,0.2c2.3,2.6,6.3,2.8,8.9,0.5c0.2-0.2,0.3-0.3,0.5-0.5c0.7-0.8,2-0.9,2.8-0.2
			S57.1,49.3,56.3,50.1L56.3,50.1L56.3,50.1z M57.8,37.2L57.8,37.2c-0.8,4.9-5.3,8.3-10.2,7.6c-3.9-0.6-7-3.6-7.6-7.6h-0.1V26
			c0-4.9,4-8.9,8.9-8.9c4.9,0,8.9,4,8.9,8.9L57.8,37.2z M64.1,30c-1.5,0-2.6-1.2-2.6-2.6c0-1.5,1.2-2.6,2.6-2.6
			c1.5,0,2.6,1.2,2.6,2.6v0C66.8,28.8,65.6,30,64.1,30C64.2,30,64.1,30,64.1,30z"/>
	</g>
</g>
</svg>
