<?xml version="1.0" encoding="utf-8"?>
<!-- Generator: Adobe Illustrator 24.1.1, SVG Export Plug-In . SVG Version: 6.00 Build 0)  -->
<svg version="1.1" id="Layer_1" xmlns="http://www.w3.org/2000/svg"
     xmlns:xlink="http://www.w3.org/1999/xlink" x="0px" y="0px"
     viewBox="0 0 88.6 74.6" style="enable-background:new 0 0 88.6 74.6;" xml:space="preserve">
<style type="text/css">
	.st0{fill:#FFFFFF;}
</style>
  <g id="Layer_2_1_">
	<g id="RAW">
		<path class="st0"
          d="M57,25.7c-1.3,0-2.3,1-2.3,2.3c0,1.3,1,2.3,2.3,2.3c1.3,0,2.3-1,2.3-2.3l0,0C59.3,26.7,58.3,25.7,57,25.7z"/>
    <path class="st0"
          d="M34,28c0-1.3-1-2.3-2.3-2.3c-1.3,0-2.3,1-2.3,2.3c0,1.3,1,2.3,2.3,2.3C33,30.3,34,29.3,34,28z"/>
    <path class="st0" d="M87.7,40.3L73.5,23.9c-0.2-0.2-0.5-0.4-0.8-0.6V3.5c0-1.9-1.5-3.5-3.5-3.5c-1.4,0-2.6,0.8-3.2,2l0,0L60,8
			c-9.9-6.7-23-6.6-32.8,0.3L21.4,3l0,0c-0.8-1.8-2.9-2.5-4.7-1.7c-1.2,0.6-2,1.8-2,3.2v18.8c-0.2,0.1-0.5,0.3-0.7,0.5L0.9,40.2
			C-0.7,41.7-0.2,43,2,43h8.4c1.2,19,17.5,33.3,36.5,32.2c17.3-1.1,31-14.8,32.2-32.1h7.6C88.8,43.1,89.3,41.8,87.7,40.3z
			 M52.5,15.4c1,0,1.8,0.8,1.8,1.9c0,1-0.8,1.8-1.9,1.8c-1,0-1.8-0.8-1.8-1.9c0,0,0,0,0,0C50.6,16.3,51.4,15.4,52.5,15.4
			C52.5,15.4,52.5,15.4,52.5,15.4z M37.2,9.5c1.6,0,2.9,1.3,2.9,2.9s-1.3,2.9-2.9,2.9c-1.6,0-2.9-1.3-2.9-2.9c0,0,0,0,0,0
			C34.3,10.9,35.6,9.5,37.2,9.5C37.2,9.5,37.2,9.5,37.2,9.5z M18.8,42.6c-2,0-3.6-1.6-3.6-3.6c0-2,1.6-3.6,3.6-3.6s3.6,1.6,3.6,3.6
			c0,0,0,0,0,0C22.4,41,20.8,42.6,18.8,42.6z M26.4,28c0-2.9,2.4-5.3,5.3-5.3c2.9,0,5.3,2.4,5.3,5.3s-2.4,5.3-5.3,5.3c0,0,0,0,0,0
			C28.8,33.3,26.4,30.9,26.4,28z M34.7,68c-1.9,0-3.4-1.5-3.4-3.3c0-1.9,1.5-3.4,3.4-3.4c1.9,0,3.4,1.5,3.4,3.3
			C38,66.5,36.5,68,34.7,68C34.7,68,34.7,68,34.7,68z M44.7,54.1c-1.6,1.9-4,3-6.5,3c-4.6,0-8.5-3.7-8.5-8.4c0-1.1,0.9-2,2-2
			c1.1,0,2,0.9,2,2c0.1,2.5,2.2,4.4,4.7,4.3c2.1-0.1,3.8-1.5,4.3-3.6l-3.9-6.8c-1.1-1.9-0.2-3.5,2-3.5h8c2.2,0,3.1,1.6,2,3.5l-4,7
			c0.6,2.4,3.1,3.9,5.5,3.3c2-0.5,3.3-2.2,3.4-4.3c0-1.1,0.9-2,2-2s2,0.9,2,2c-0.1,4.6-3.8,8.2-8.4,8.3C48.7,57,46.3,55.9,44.7,54.1
			L44.7,54.1z M58.7,64.5c-1.6,0-2.9-1.3-2.9-2.9c0-1.6,1.3-2.9,2.9-2.9c1.6,0,2.9,1.3,2.9,2.9C61.5,63.1,60.3,64.4,58.7,64.5
			L58.7,64.5z M57,33.3c-2.9,0-5.3-2.4-5.3-5.3s2.4-5.3,5.3-5.3c2.9,0,5.3,2.4,5.3,5.3c0,0,0,0,0,0C62.3,30.9,59.9,33.3,57,33.3z
			 M65.7,46.2c-1.6,0-2.9-1.3-2.9-2.9c0-1.6,1.3-2.9,2.9-2.9c1.6,0,2.9,1.3,2.9,2.9S67.3,46.2,65.7,46.2L65.7,46.2z M73.7,36.6
			c-1.6,0-2.8-1.3-2.8-2.8c0-1.6,1.3-2.8,2.8-2.8c1.6,0,2.8,1.3,2.8,2.8l0,0C76.5,35.4,75.2,36.6,73.7,36.6z"/>
	</g>
</g>
</svg>
