<?xml version="1.0" encoding="utf-8"?>
<!-- Generator: Adobe Illustrator 24.1.1, SVG Export Plug-In . SVG Version: 6.00 Build 0)  -->
<svg version="1.1" id="Layer_1" xmlns="http://www.w3.org/2000/svg"
     xmlns:xlink="http://www.w3.org/1999/xlink" x="0px" y="0px"
     viewBox="0 0 73.4 96" style="enable-background:new 0 0 73.4 96;" xml:space="preserve">
<style type="text/css">
	.st0{fill:#FFFFFF;}
</style>
  <g id="Layer_2_1_">
	<g id="RAW">
		<path class="st0" d="M33.7,25.6c-0.6,0-1,0.4-1,1c0,1.2-1,2.2-2.2,2.2c0,0,0,0,0,0c-1,0-2-0.7-2.2-1.7l2-3.5c0.5-1,0.1-1.7-1-1.7
			h-4c-1.1,0-1.5,0.8-1,1.7l1.9,3.4c-0.2,1.2-1.4,2-2.6,1.8c-1-0.2-1.8-1.1-1.8-2.2c0-0.6-0.4-1-1-1s-1,0.4-1,1
			c0,2.3,1.9,4.2,4.2,4.2c1.2,0,2.4-0.5,3.2-1.5c1.5,1.8,4.2,2,6,0.5c0.9-0.8,1.5-1.9,1.5-3.2C34.7,26,34.3,25.6,33.7,25.6z"/>
    <path class="st0" d="M35.4,18.6c0,0.7-0.6,1.2-1.3,1.2c-0.7,0-1.2-0.6-1.2-1.3s0.6-1.2,1.3-1.2c0,0,0,0,0,0
			C34.8,17.4,35.4,17.9,35.4,18.6C35.4,18.6,35.4,18.6,35.4,18.6z"/>
    <path class="st0"
          d="M21.5,18.6c0,0.7-0.6,1.3-1.3,1.3S19,19.3,19,18.6s0.6-1.3,1.3-1.3S21.5,17.9,21.5,18.6z"/>
    <path class="st0" d="M70.4,55.4L66.8,51l-9,14.4l5.6-18.5l-6.7-8.1L47,54.3l5.9-20L49,29.7c6.6-7.3,5.9-18.6-1.4-25.2
			c-3-2.7-6.8-4.2-10.7-4.5l0,0h-19C8,0,0,8,0,17.9c0,4.7,1.9,9.3,5.2,12.6c0.9,0.9,1.9,1.7,2.9,2.4L20,42.4
			c0.3,0.2,0.6,0.5,0.9,0.7l0.1,0.1l0,0c1.5,1,3.1,1.6,4.9,1.8l0.2,0.3l-7.2,24.1H15l0,0c-1.2,0.1-2.1,1.2-2,2.4
			c0.1,1.1,0.9,1.9,2,2l0,0h8.8L35.2,56l3.2,3.7c-1,3.4-0.3,7,1.8,9.8h-5.8l0,0h-0.3c-1.2,0.1-2.1,1.1-2,2.3c0.1,1.1,0.9,1.9,2,2
			c0.1,0,0.2,0,0.3,0l0,0h7.7l13.4-19.2l-5.9,19.3h0.7l0,0h12c1.9,0,3.7-0.5,5.4-1.4C63.6,84.1,52.6,92,40.2,92c-1.1,0-2,0.9-2,2
			s0.9,2,2,2c18.3,0,33.1-14.8,33.2-33.1C73.4,60.1,72.3,57.4,70.4,55.4z M40.8,16c-0.7,0-1.3-0.2-1.8-0.6v0.1l2.7,12.1l-11.1,8.8
			l0,0c-2.1,2.1-5.4,2.1-7.5,0l0,0l-11.1-8.8l2.9-12.8c-0.6,0.7-1.5,1.1-2.5,1.1c-1.8,0-3.2-1.4-3.2-3.2c0-1.8,1.4-3.2,3.2-3.2h28.4
			c1.8,0,3.2,1.4,3.2,3.2S42.5,16,40.8,16C40.8,16,40.8,16,40.8,16z"/>
	</g>
</g>
</svg>
