<svg xmlns="http://www.w3.org/2000/svg" xmlns:xlink="http://www.w3.org/1999/xlink" width="90"
     height="111.156" viewBox="0 0 90 111.156">
  <defs>
    <style>
      .lock {
      fill: #fff;
      fill-rule: evenodd;
      filter: url(#lock-filter);
      }
    </style>
    <filter id="lock-filter" x="595" y="419.844" width="90" height="111.156"
            filterUnits="userSpaceOnUse">
      <feOffset result="offset" dy="4" in="SourceAlpha"/>
      <feGaussianBlur result="blur" stdDeviation="1.732"/>
      <feFlood result="flood" flood-opacity="0.12"/>
      <feComposite result="composite" operator="in" in2="blur"/>
      <feOffset result="offset-2" dy="10" in="SourceAlpha"/>
      <feGaussianBlur result="blur-2" stdDeviation="3.162"/>
      <feFlood result="flood-2" flood-opacity="0.29"/>
      <feComposite result="composite-2" operator="in" in2="blur-2"/>
      <feBlend result="blend" mode="multiply" in2="composite"/>
      <feBlend result="blend-2" in="SourceGraphic"/>
      <feGaussianBlur result="blur-3" stdDeviation="1" in="SourceAlpha"/>
      <feFlood result="flood-3" flood-color="#fff" flood-opacity="0.43"/>
      <feComposite result="composite-3" operator="out" in2="blur-3"/>
      <feOffset result="offset-3" dx="-1.176" dy="1.618"/>
      <feComposite result="composite-4" operator="in" in2="SourceAlpha"/>
      <feBlend result="blend-3" mode="screen" in2="blend-2"/>
      <feGaussianBlur result="blur-4" stdDeviation="1" in="SourceAlpha"/>
      <feFlood result="flood-4" flood-color="#2f2722" flood-opacity="0.29"/>
      <feComposite result="composite-5" operator="out" in2="blur-4"/>
      <feOffset result="offset-4" dx="-0.707" dy="-0.707"/>
      <feComposite result="composite-6" operator="in" in2="SourceAlpha"/>
      <feBlend result="blend-4" mode="multiply" in2="blend-3"/>
    </filter>
  </defs>
  <path class="lock"
        d="M665.917,450.214h-4.37v-8.681a21.851,21.851,0,0,0-43.7,0v8.681h-4.37a8.736,8.736,0,0,0-8.74,8.681v43.4a8.736,8.736,0,0,0,8.74,8.68h52.44a8.736,8.736,0,0,0,8.74-8.68V458.9A8.736,8.736,0,0,0,665.917,450.214ZM639.7,489.277a8.681,8.681,0,1,1,8.74-8.681A8.736,8.736,0,0,1,639.7,489.277Zm13.547-39.063H626.15v-8.681a13.547,13.547,0,0,1,27.094,0v8.681Z"
        transform="translate(-595 -419.844)"/>
</svg>
