<?xml version="1.0" encoding="utf-8"?>
<!-- Generator: Adobe Illustrator 24.1.1, SVG Export Plug-In . SVG Version: 6.00 Build 0)  -->
<svg version="1.1" id="Layer_1" xmlns="http://www.w3.org/2000/svg"
     xmlns:xlink="http://www.w3.org/1999/xlink" x="0px" y="0px"
     viewBox="0 0 96.1 93.5" style="enable-background:new 0 0 96.1 93.5;" xml:space="preserve">
<style type="text/css">
	.st0{fill:#FFFFFF;}
</style>
  <g id="Layer_2_1_">
	<g id="RAW">
		<path class="st0" d="M94,76.6L94,76.6L94,76.6c-0.4-0.5-0.8-1-1.3-1.4l-4.9-5.4L19.4,4C15.5-0.7,8.6-1.3,3.9,2.6
			C1.5,4.7,0,7.8,0,11v11h6.9c1.6-1.5,2.7-3.5,3.3-5.6c0.2-0.8,1.1-1.3,1.9-1c0.8,0.2,1.3,1.1,1,1.9c-0.9,3.2-2.8,6-5.4,8.1
			c0.2,4.2,0.8,8.4,1.8,12.5c-3.9,4.8-12,17.3,0.8,28.3L18,54.3c16,18.5,45.6,16.8,55,15.8l1.9,14.4H75c0.9,5.8,6.3,9.8,12.1,8.9
			c5.8-0.9,9.8-6.3,8.9-12.1C95.7,79.6,95,77.9,94,76.6z M1.4,12.3c0-0.8,0.7-1.5,1.5-1.5s1.5,0.7,1.5,1.5s-0.7,1.5-1.5,1.5
			c0,0,0,0,0,0C2.1,13.8,1.4,13.2,1.4,12.3z M4.9,18.5c-0.8,0-1.5-0.7-1.5-1.5s0.7-1.5,1.5-1.5s1.5,0.7,1.5,1.5S5.7,18.5,4.9,18.5z
			 M7.9,13.8c-0.8,0-1.5-0.7-1.5-1.5s0.7-1.5,1.5-1.5s1.5,0.7,1.5,1.5S8.7,13.8,7.9,13.8z M11.9,9c-1.4,0-2.5-1.1-2.5-2.5
			S10.5,4,11.9,4s2.5,1.1,2.5,2.5C14.4,7.9,13.3,9,11.9,9C11.9,9,11.9,9,11.9,9L11.9,9z"/>
	</g>
</g>
</svg>
