<?xml version="1.0" encoding="utf-8"?>
<!-- Generator: Adobe Illustrator 24.1.1, SVG Export Plug-In . SVG Version: 6.00 Build 0)  -->
<svg version="1.1" id="Layer_1" xmlns="http://www.w3.org/2000/svg"
     xmlns:xlink="http://www.w3.org/1999/xlink" x="0px" y="0px"
     viewBox="0 0 98.4 76.3" style="enable-background:new 0 0 98.4 76.3;" xml:space="preserve">
<style type="text/css">
	.st0{fill:#FFFFFF;}
</style>
  <g id="Layer_2_1_">
	<g id="RAW">
		<path class="st0" d="M98.2,74.7l-3.1-4.8C80.4,51.3,64.4,28.3,51.9,13c0.7-4.6-0.9-9.3-4.3-12.6c-0.4-0.4-0.9-0.5-1.5-0.4
			c-2.9,0.8-5.5,2.6-7.4,4.9c-1.2-0.4-2.5-0.5-3.8-0.6c-2.4,0-4.7,0.7-6.6,2C7.3,20.6,1.5,26.3,1.2,26.5l0,0c-1.3,0.9-1.6,2.7-0.7,4
			c0.5,0.8,1.4,1.2,2.3,1.2c0.4,0,0.7-0.1,1.1-0.2l0,0c0,4.1,3,7.6,7,8.3l-0.1,0.1l22.5,3.3l14.3,33h49.7c0.6,0,1-0.4,1-1
			C98.4,75,98.3,74.8,98.2,74.7L98.2,74.7z M16.4,33.3c-1.1,0-2-0.9-2-2c0-1.1,0.9-2,2-2s2,0.9,2,2C18.4,32.4,17.5,33.3,16.4,33.3z
			 M21.4,25.3c-1.1,0-2-0.9-2-2s0.9-2,2-2s2,0.9,2,2C23.4,24.4,22.5,25.3,21.4,25.3C21.4,25.3,21.4,25.3,21.4,25.3z M26.2,32.8
			c-1.1,0-2-0.9-2-2s0.9-2,2-2s2,0.9,2,2S27.3,32.8,26.2,32.8z M34.2,19.3c-1.6,0-2.8-1.2-2.9-2.8c0-1.6,1.2-2.8,2.8-2.9
			s2.8,1.2,2.9,2.8c0,0,0,0,0,0C37,18,35.8,19.2,34.2,19.3L34.2,19.3z"/>
	</g>
</g>
</svg>
