<?xml version="1.0" encoding="utf-8"?>
<!-- Generator: Adobe Illustrator 24.1.1, SVG Export Plug-In . SVG Version: 6.00 Build 0)  -->
<svg version="1.1" id="Layer_1" xmlns="http://www.w3.org/2000/svg"
     xmlns:xlink="http://www.w3.org/1999/xlink" x="0px" y="0px"
     viewBox="0 0 95.7 92.6" style="enable-background:new 0 0 95.7 92.6;" xml:space="preserve">
<style type="text/css">
	.st0{fill:#FFFFFF;}
</style>
  <g id="Layer_2_1_">
	<g id="RAW">
		<path class="st0" d="M84.3,43.2c5.7-1.5,9-7.3,7.5-12.9c-1.2-4.7-5.4-7.9-10.3-7.9h-0.8C74.9,5.1,56.1-4.1,38.9,1.8
			c-9.7,3.3-17.3,10.9-20.6,20.6h-1.8c-5.9,0-10.6,4.8-10.6,10.6c0,4.2,2.5,8,6.3,9.7C-0.3,51-3.8,67.9,4.5,80.4
			c4.6,7,12.3,11.5,20.7,12.1v0.1h46.9c13.5-1.9,23.6-13.5,23.6-27.2C95.7,56.6,91.4,48.3,84.3,43.2z M70.8,82.5l-1.2,0.2h-43
			L26,82.6c-9.5-0.7-16.6-8.9-15.9-18.4c0.6-8.5,7.4-15.3,15.9-15.9l0.8-0.1h4.1c-5.5-2.5-7.9-9.1-5.4-14.6c1.8-3.9,5.7-6.4,10-6.4
			h25c6.1,0,11,4.9,11,11c0,4.3-2.5,8.2-6.4,10h4.7l1.2,0.2c9.4,1.3,16,10,14.8,19.4C84.6,75.4,78.5,81.4,70.8,82.5L70.8,82.5z"/>
    <path class="st0" d="M63.4,36.8c0,1.5-1.2,2.6-2.6,2.6s-2.6-1.2-2.6-2.6c0-1.5,1.2-2.6,2.6-2.6l0,0C62.3,34.2,63.4,35.4,63.4,36.8
			z"/>
    <path class="st0" d="M38.7,36.8c0,1.5-1.2,2.6-2.6,2.6s-2.6-1.2-2.6-2.6c0-1.5,1.2-2.6,2.6-2.6l0,0C37.5,34.2,38.7,35.4,38.7,36.8
			z"/>
    <path class="st0" d="M59.8,65.6c-0.8-0.7-2-0.6-2.8,0.1c-1.6,1.8-3.8,3-6.2,3.4V57.5l6.9-6.9c0.8-0.8,0.8-2,0-2.8
			c-0.8-0.8-2-0.8-2.8,0l0,0l-6.1,6.1l-6.1-6.1c-0.8-0.8-2-0.8-2.8,0s-0.8,2,0,2.8l6.9,6.9v11.7c-2.4-0.4-4.6-1.6-6.2-3.4
			c-0.7-0.8-2-0.9-2.8-0.2s-0.9,2-0.2,2.8c5.5,6.2,15,6.7,21.2,1.1c0.4-0.4,0.8-0.7,1.1-1.1C60.6,67.6,60.6,66.3,59.8,65.6z"/>
	</g>
</g>
</svg>
