<?xml version="1.0" encoding="utf-8"?>
<!-- Generator: Adobe Illustrator 24.1.1, SVG Export Plug-In . SVG Version: 6.00 Build 0)  -->
<svg version="1.1" id="Layer_1" xmlns="http://www.w3.org/2000/svg"
     xmlns:xlink="http://www.w3.org/1999/xlink" x="0px" y="0px"
     viewBox="0 0 112.4 92.7" style="enable-background:new 0 0 112.4 92.7;" xml:space="preserve">
<style type="text/css">
	.st0{fill:#FFFFFF;}
</style>
  <g id="Layer_2_1_">
	<g id="RAW">
		<path class="st0" d="M112.4,5c0-2.8-2.2-5-5-5s-5,2.2-5,5c0,4.3-1.9,8.8-5.1,12.8c0.7-3.8,0.6-7.6-0.4-11.3
			c-0.8-2.6-3.6-4.1-6.3-3.3c-2.6,0.8-4.1,3.6-3.3,6.3c1,4.4,0.1,9.1-2.5,12.8c0.3-3.6-0.4-7.3-2-10.6c-1.2-2.5-4.3-3.5-6.7-2.2
			s-3.5,4.3-2.2,6.7c0.4,0.9,3.8,8.7-5.4,15.9c-0.2,0.2-0.4,0.3-0.6,0.5c-3.3-6.3-11.1-8.8-17.4-5.6c-2.6,1.3-4.6,3.5-5.8,6.1
			c-0.3-0.4-0.6-0.8-1-1.1c-9.1-7.2-5.8-15-5.4-15.9c1.2-2.5,0.1-5.5-2.4-6.6c-2.4-1.1-5.2-0.2-6.5,2.1c-1.6,3.3-2.3,6.9-2,10.6
			C24.9,18.5,24,13.9,25,9.5c0.8-2.6-0.6-5.4-3.3-6.3s-5.4,0.6-6.3,3.3c-1,3.7-1.1,7.6-0.4,11.3c-3.1-4.1-5-8.5-5-12.8
			c0-2.8-2.2-5-5-5S0,2.2,0,5c0,19.4,22.1,36.2,42.2,38.5l-5.5,23.4c-0.1,0.4-0.2,0.9-0.3,1.4v0.1l0,0c-0.2,1.2-0.3,2.5-0.3,3.7
			c0,11.4,9.1,20.6,20.5,20.7s20.6-9.1,20.7-20.5c0-1.3-0.1-2.6-0.3-3.9l0,0v-0.1c-0.1-0.5-0.2-0.9-0.3-1.3L71,43.4
			C90.8,40.8,112.4,24.1,112.4,5z M63.3,46.5c1.5,0,2.8,1.2,2.8,2.8c0,1.5-1.2,2.8-2.8,2.8s-2.8-1.2-2.8-2.8v0
			C60.5,47.7,61.7,46.5,63.3,46.5C63.2,46.5,63.3,46.5,63.3,46.5z M49.2,46.5c1.5,0,2.8,1.2,2.8,2.8S50.7,52,49.2,52
			s-2.8-1.2-2.8-2.8v0C46.4,47.7,47.7,46.5,49.2,46.5z M66.7,86c-5.6,5.6-14.6,5.6-20.2,0c-0.6-0.6-0.6-1.5-0.1-2.1
			c0.6-0.6,1.5-0.6,2.1-0.1c0,0,0.1,0,0.1,0.1c1.7,1.7,4,2.9,6.5,3.2v-5.5l-7.9-13.7c-0.4-0.7-0.2-1.6,0.5-2
			c0.2-0.1,0.5-0.2,0.8-0.2h16.3c0.8,0,1.5,0.7,1.5,1.5c0,0.3-0.1,0.5-0.2,0.7l-7.9,13.7v5.5c2.4-0.3,4.7-1.4,6.5-3.2
			c0.7-0.5,1.6-0.4,2.1,0.2C67.1,84.7,67.1,85.5,66.7,86z"/>
	</g>
</g>
</svg>
