<?xml version="1.0" encoding="utf-8"?>
<!-- Generator: Adobe Illustrator 24.1.1, SVG Export Plug-In . SVG Version: 6.00 Build 0)  -->
<svg version="1.1" id="Layer_1" xmlns="http://www.w3.org/2000/svg"
     xmlns:xlink="http://www.w3.org/1999/xlink" x="0px" y="0px"
     viewBox="0 0 97.3 102.6" style="enable-background:new 0 0 97.3 102.6;" xml:space="preserve">
<style type="text/css">
	.st0{fill:#FFFFFF;}
</style>
  <g id="Layer_2_1_">
	<g id="RAW">
		<path class="st0" d="M93.3,89c-2.2-2.2-5-3.5-8.1-3.9c0.8-6.6,0.3-13.2-1.4-19.6c-1.9-7.2-5.3-13.9-9.8-19.7
			c-4.8-6.2-10.8-11.3-17.6-15.1c-3.5-2-7.2-3.6-11.1-4.8c-1.9-0.6-3.9-1.1-5.9-1.6c-1-0.2-2-0.4-3-0.6l-1.7-0.2l-1.2-0.2
			c-0.9-0.1-1.8-0.2-2.8-0.2h-13c-0.4,0-0.8,0-1.1,0L4.7,1.3C4,0.1,2.5-0.3,1.3,0.3c-1.1,0.6-1.5,1.9-1.1,3l8.2,23
			c-3.4,2.7-5.6,6.7-5.8,11.1l0,0v11.1h2.8c0.2-0.1,0.4-0.1,0.6-0.1c5.1,0,9.3-4.2,9.3-9.3c0-0.8,0.7-1.5,1.5-1.5
			c0.8,0,1.5,0.7,1.5,1.5c0,5.6-3.8,10.5-9.2,11.9c2.6,1.9,5.8,2.9,9,2.9h5.6l0,0h16.4c2.3,0,4.5,0.1,6.7,0.6
			c4.7,0.9,9.2,2.8,13.2,5.5c4.3,2.9,7.9,6.6,10.7,11c2.7,4.3,4.6,9.1,5.6,14.1C68.7,85.3,62.8,91.5,63,99c0,1.1,0.2,2.1,0.5,3.2
			c7.3,2,14.7-2.3,16.7-9.6c0,0,0,0,0-0.1c1.9,7.3,9.4,11.6,16.6,9.7c0,0,0,0,0.1,0C98.1,97.5,96.8,92.4,93.3,89z M17.4,34.6
			c-1.4,0-2.5-1.1-2.5-2.5c0-1.4,1.1-2.5,2.5-2.5s2.5,1.1,2.5,2.5C19.9,33.5,18.7,34.6,17.4,34.6z"/>
	</g>
</g>
</svg>
