<?xml version="1.0" encoding="utf-8"?>
<!-- Generator: Adobe Illustrator 24.1.1, SVG Export Plug-In . SVG Version: 6.00 Build 0)  -->
<svg version="1.1" id="Layer_1" xmlns="http://www.w3.org/2000/svg"
     xmlns:xlink="http://www.w3.org/1999/xlink" x="0px" y="0px"
     viewBox="0 0 118.1 76.7" style="enable-background:new 0 0 118.1 76.7;" xml:space="preserve">
<style type="text/css">
	.st0{fill:#FFFFFF;}
</style>
  <g id="Layer_2_1_">
	<g id="RAW">
		<path class="st0" d="M106.2,65c-3.7,0-5.6,2.6-7,4.6s-2.1,2.7-3.4,2.7s-2-0.8-3.4-2.7s-3.3-4.6-7-4.6c-1.2,0-2.3,0.3-3.3,0.8
			c-0.1-1-0.2-2-0.3-3c-0.3-3.6-0.6-7.1-0.9-10.7l-1.5-16.5c-0.5-5.5-1-9.8-1.7-13.8c3.4-1.3,5.2-5.1,3.9-8.6
			c-1-2.6-3.5-4.3-6.2-4.3c-0.8,0-1.6,0.2-2.3,0.4c-3.4-4.6-8.5-7.8-14.2-8.9c-1.5-0.3-3-0.4-4.5-0.4c-7.3,0-14.1,3.4-18.5,9.2
			c-3.4-1.3-7.3,0.5-8.5,3.9c-1.2,3.4,0.4,7.1,3.8,8.5c-0.7,4-1.3,8.4-1.8,13.9L27.7,52c-0.4,3.6-0.7,7.2-1,10.8
			c-0.1,1-0.2,2.1-0.3,3.1c-1-0.6-2.2-0.9-3.4-0.9c-3.7,0-5.6,2.6-7,4.6s-2.1,2.7-3.4,2.7s-2-0.8-3.4-2.7S6,65,2.2,65
			c-1.2,0.1-2.1,1.1-2.1,2.4c0.1,1.1,1,2,2.1,2.1c1.3,0,2,0.8,3.4,2.7s3.3,4.6,7,4.6s5.6-2.6,7-4.6s2.1-2.7,3.4-2.7s1.9,0.6,3.1,2.3
			l0.3,0.4c1.4,1.9,3.3,4.6,7,4.6s5.6-2.6,7-4.6s2.1-2.7,3.4-2.7s2,0.8,3.4,2.7s3.3,4.6,7,4.6s5.6-2.6,7-4.6s2.1-2.7,3.4-2.7
			s2,0.8,3.4,2.7s3.3,4.6,7,4.6s5.6-2.6,7-4.6l0.3-0.5c1.2-1.6,1.8-2.2,3.1-2.2s2,0.8,3.4,2.7s3.3,4.6,7,4.6s5.6-2.6,7-4.6
			s2.1-2.7,3.4-2.7c1.2-0.1,2.1-1.1,2.1-2.4C108.2,66,107.3,65.1,106.2,65z M43.4,21.1c1.7,0,3,1.3,3,3s-1.3,3-3,3s-3-1.3-3-3
			C40.4,22.4,41.8,21.1,43.4,21.1L43.4,21.1z M43.7,57.9c-3,2.9-7.8,2.9-10.7,0c-0.6-0.6-0.6-1.5,0-2.1s1.5-0.6,2.1,0
			c1.8,1.8,4.7,1.8,6.5,0c0,0,0,0,0,0c1.8-1.8,1.8-4.7,0-6.5l-6-6.4c-0.6-0.6-0.5-1.6,0.1-2.1c0.6-0.5,1.5-0.5,2.1,0l6,6.3
			c1.4,1.4,2.2,3.3,2.2,5.3C45.9,54.6,45.1,56.5,43.7,57.9L43.7,57.9z M61.4,37.4c-4.2,4.2-10.9,4.2-15.1,0c-0.6-0.6-0.6-1.5,0-2.1
			s1.5-0.6,2.1,0c1.1,1.1,2.4,1.8,3.9,2.1v-4.7h-4.6c-0.2,0-0.3-0.1-0.4-0.3c-0.1-0.2-0.1-0.3,0-0.5l6.2-10.7
			c0.1-0.2,0.3-0.2,0.4-0.3c0.2,0,0.3,0.1,0.4,0.3l6.1,10.6c0.1,0.1,0.1,0.2,0.2,0.3c0,0.2-0.1,0.4-0.3,0.5h-5v4.7
			c1.5-0.3,2.8-1,3.9-2.1c0.6-0.6,1.5-0.6,2.1,0S62,36.8,61.4,37.4L61.4,37.4L61.4,37.4z M62.2,24.2c0-1.7,1.3-3,3-3
			c1.7,0,3,1.3,3,3c0,1.7-1.3,3-3,3C63.6,27.2,62.2,25.9,62.2,24.2z M75.7,57.9c-3.2,2.7-8,2.4-10.7-0.8c-2.5-2.9-2.4-7.1,0-9.9
			l6-6.3c0.6-0.6,1.5-0.6,2.1,0c0.6,0.6,0.6,1.5,0,2.1l-6,6.3c-0.9,0.9-1.4,2-1.4,3.3c0,2.5,2,4.6,4.6,4.6c1.2,0,2.4-0.5,3.2-1.3
			c0.6-0.5,1.6-0.5,2.1,0.2C76.2,56.6,76.2,57.4,75.7,57.9L75.7,57.9z"/>
	</g>
</g>
</svg>
