<?xml version="1.0" encoding="utf-8"?>
<!-- Generator: Adobe Illustrator 24.1.1, SVG Export Plug-In . SVG Version: 6.00 Build 0)  -->
<svg version="1.1" id="Layer_1" xmlns="http://www.w3.org/2000/svg"
     xmlns:xlink="http://www.w3.org/1999/xlink" x="0px" y="0px"
     viewBox="0 0 100.4 82.6" style="enable-background:new 0 0 100.4 82.6;" xml:space="preserve">
<style type="text/css">
	.st0{fill:#FFFFFF;}
</style>
  <g id="Layer_2_1_">
	<g id="RAW">
		<path class="st0"
          d="M68.1,34.4c0,1.1,0.9,2.1,2.1,2.1s2.1-0.9,2.1-2.1s-0.9-2.1-2.1-2.1l0,0C69.1,32.4,68.1,33.3,68.1,34.4z"/>
    <path class="st0"
          d="M27.1,34.4c0,1.1,0.9,2.1,2.1,2.1c1.1,0,2.1-0.9,2.1-2.1s-0.9-2.1-2.1-2.1l0,0C28,32.4,27.1,33.3,27.1,34.4z"
    />
    <path class="st0" d="M92,32.9L92,32.9l-4.4-4.4c7.7-2,12.4-9.9,10.4-17.6c-2-7.7-9.9-12.4-17.6-10.4C75.3,1.8,71.3,5.8,70,10.9
			C58.9,0.6,41.8,0.6,30.6,10.8C28.5,3,20.6-1.6,12.8,0.5S0.5,10.5,2.6,18.2c1.3,5,5.2,8.9,10.2,10.2l-4.4,4.4h0
			C-2.9,44.4-2.8,62.8,8.7,74.1c5,4.9,11.6,7.9,18.7,8.3v0.1h46.5v-0.1c16-1.5,27.9-15.6,26.4-31.7C99.7,44,96.7,37.7,92,32.9z
			 M84,5c5.2,0,9.5,4.3,9.5,9.5S89.2,24,84,24c-0.3,0-0.7,0-1,0l-8.5-8.5c0-0.3-0.1-0.6-0.1-1C74.5,9.3,78.7,5,84,5C84,5,84,5,84,5z
			 M7.1,14.5c0-5.2,4.3-9.5,9.5-9.5s9.5,4.3,9.5,9.5c0,0.3,0,0.5,0,0.7L17.3,24c-0.2,0-0.5,0-0.7,0C11.3,24,7.1,19.7,7.1,14.5
			C7.1,14.5,7.1,14.5,7.1,14.5z M29.3,51.3L29.3,51.3c-4.7,2.7-10.7,1.1-13.4-3.6c-1.3-2.2-1.6-4.9-1-7.4c0.1-0.2,0.1-0.4,0.2-0.6
			l0,0l0,0c0.2-0.5,0.4-1,0.6-1.5l3.4-7.9c0.2-0.7,0.5-1.3,0.9-1.9l0,0l0,0c3.3-6.3,11.2-8.7,17.5-5.4s8.7,11.2,5.4,17.5
			c-0.8,1.5-1.9,2.8-3.2,3.9l0,0c-0.7,0.6-1.4,1.1-2.2,1.5l-7.2,4.8C30,50.8,29.7,51.1,29.3,51.3z M56,64.3c-2.5,0-4.9-1.1-6.5-3
			c-1.6,1.9-4,3-6.5,3c-4.6,0-8.5-3.7-8.5-8.4c0-1.1,0.9-2,2-2s2,0.9,2,2c0.1,2.5,2.2,4.4,4.7,4.3c2.1-0.1,3.8-1.5,4.3-3.6
			l-5.9-10.2h16l-6,10.4c0.6,2.4,3.1,3.9,5.5,3.3c1.9-0.5,3.3-2.2,3.4-4.2c0-1.1,0.9-2,2-2c1.1,0,2,0.9,2,2
			C64.4,60.6,60.6,64.3,56,64.3z M77.8,52.3c-2.5,0.7-5.2,0.3-7.4-1l0,0c-0.3-0.2-0.7-0.4-1-0.7l-7.1-4.8c-0.8-0.4-1.5-0.9-2.2-1.5
			l0,0c-5.5-4.6-6.3-12.7-1.7-18.2s12.7-6.3,18.2-1.7c1.3,1.1,2.4,2.4,3.2,3.9l0,0l0,0c0.3,0.6,0.6,1.2,0.8,1.9l3.4,7.9
			c0.3,0.5,0.5,1,0.6,1.5l0,0l0,0c0.1,0.2,0.1,0.4,0.2,0.6C86.1,45.4,83,50.8,77.8,52.3C77.8,52.2,77.8,52.2,77.8,52.3L77.8,52.3z"
    />
	</g>
</g>
</svg>
