<?xml version="1.0" encoding="utf-8"?>
<!-- Generator: Adobe Illustrator 24.1.1, SVG Export Plug-In . SVG Version: 6.00 Build 0)  -->
<svg version="1.1" id="Layer_1" xmlns="http://www.w3.org/2000/svg"
     xmlns:xlink="http://www.w3.org/1999/xlink" x="0px" y="0px"
     viewBox="0 0 66.5 100.7" style="enable-background:new 0 0 66.5 100.7;" xml:space="preserve">
<style type="text/css">
	.st0{fill:#FFFFFF;}
</style>
  <g id="Layer_2_1_">
	<g id="RAW">
		<path class="st0" d="M66.2,56.1L50.8,32.9c-1.5-2.6-3.6-5.9-6.2-7.6V14.9l0,0c0-0.1,0-0.3,0-0.4c0-8-6.5-14.6-14.5-14.6
			c-3.9,0-7.6,1.5-10.3,4.3l-9,8.9C9.2,14.7,9.7,16,11.9,16h4.8l6.8,8.8l0.1,0.5c-3.1,1.7-5.7,4.2-7.5,7.2l-0.1,0.1L0.3,56.1
			c-0.5,0.8-0.4,1.8,0.2,2.5c0.3,0.3,3.3,3.3,7.2,3.3l0,0c2.1,0,4-0.8,5.5-2.3v17.3l0,0v17.8h-7c-1.7,0-3,1.3-3,3s1.3,3,3,3h10
			c1.7,0,3-1.3,3-3V89c3.7,3.5,8.6,5.4,13.7,5.5l0,0h0.5l0,0c5.1-0.1,9.9-2,13.7-5.5v8.8c0,1.7,1.3,3,3,3h10c1.7,0,3-1.3,3-3
			s-1.3-3-3-3h-7V76.6l0,0v-17c1.5,1.4,3.5,2.2,5.5,2.3l0,0c4,0,6.9-3,7.2-3.3C66.6,57.9,66.7,56.9,66.2,56.1z M29.4,8.2
			c1.3,0,2.4,1,2.4,2.3c0,1.3-1,2.4-2.3,2.4c-1.3,0-2.4-1-2.4-2.3c0,0,0,0,0,0C27,9.3,28,8.2,29.4,8.2z M43.9,47.8V76h-0.1
			c-0.8,5.3-5.4,9.1-10.8,9c-5.4,0.1-10-3.7-10.8-9h-0.1v-1.1l0,0V47.7l0,0v-1.1h0.1c0.8-5.3,5.4-9.1,10.8-9c5.4-0.1,10,3.7,10.8,9
			h0.1L43.9,47.8z"/>
	</g>
</g>
</svg>
