<?xml version="1.0" encoding="utf-8"?>
<!-- Generator: Adobe Illustrator 24.1.1, SVG Export Plug-In . SVG Version: 6.00 Build 0)  -->
<svg version="1.1" id="Layer_1" xmlns="http://www.w3.org/2000/svg"
     xmlns:xlink="http://www.w3.org/1999/xlink" x="0px" y="0px"
     viewBox="0 0 55.7 108.4" style="enable-background:new 0 0 55.7 108.4;" xml:space="preserve">
<style type="text/css">
	.st0{fill:#FFFFFF;}
</style>
  <g id="Layer_2_1_">
	<g id="RAW">
		<path class="st0" d="M55.1,22C51.9,7,37-2.6,22,0.6s-24.6,18-21.4,33.1l4.5,21.1C8.8,49,14.4,44.9,21,43.3
			c1.4-3.7,5.5-5.5,9.1-4.1c1.9,0.7,3.5,2.3,4.2,4.2c6.8,1.8,12.6,6.2,16.1,12.3l4.7-22C55.9,29.9,55.9,25.9,55.1,22z M12.6,29.2
			c-1.4,0-2.5-1.1-2.5-2.5s1.1-2.5,2.5-2.5s2.5,1.1,2.5,2.5S14,29.2,12.6,29.2z M42.3,29.2c-1.4,0-2.5-1.1-2.5-2.5s1.1-2.5,2.5-2.5
			s2.5,1.1,2.5,2.5S43.6,29.2,42.3,29.2z"/>
    <path class="st0" d="M32.9,46.8c-0.5-0.1-0.9-0.5-1-1c-0.6-2.4-2.9-3.9-5.3-3.3c-1.6,0.4-2.9,1.6-3.3,3.2c-0.1,0.5-0.5,0.9-1,1
			c-7.1,1.6-13.1,6.4-16.3,13l5.2,35.2c2,9.2,11.1,15.1,20.3,13.1c6.6-1.4,11.7-6.5,13.1-13.1l4.9-34C46.6,53.8,40.4,48.5,32.9,46.8
			z M19,65.5c-0.6,0.9-1.9,1.1-2.8,0.5L12,63c-0.4-0.3-0.7-0.8-0.8-1.3c-0.2-1.1,0.5-2.1,1.6-2.3c0.5-0.1,1.1,0,1.5,0.3l4.2,3
			C19.4,63.3,19.6,64.6,19,65.5C19,65.5,19,65.5,19,65.5z M43.6,61.7c-0.1,0.5-0.4,1-0.8,1.3l-4.2,3c-0.9,0.6-2.1,0.4-2.8-0.5
			c-0.6-0.9-0.4-2.1,0.5-2.8l4.2-3c0.9-0.6,2.1-0.4,2.8,0.5C43.5,60.6,43.6,61.2,43.6,61.7L43.6,61.7z"/>
	</g>
</g>
</svg>
