<?xml version="1.0" encoding="utf-8"?>
<!-- Generator: Adobe Illustrator 24.1.1, SVG Export Plug-In . SVG Version: 6.00 Build 0)  -->
<svg version="1.1" id="Layer_1" xmlns="http://www.w3.org/2000/svg"
     xmlns:xlink="http://www.w3.org/1999/xlink" x="0px" y="0px"
     viewBox="0 0 93.4 83.7" style="enable-background:new 0 0 93.4 83.7;" xml:space="preserve">
<style type="text/css">
	.st0{fill:#FFFFFF;}
</style>
  <g id="Layer_2_1_">
	<g id="RAW">
		<path class="st0" d="M68.9,24.3c-3.3,0-6.6,0.8-9.5,2.3c-2.1-0.9-4.2-1.5-6.4-1.9c0-0.2,0-0.4,0-0.5c0.2-1.5,0.8-2.9,1.6-4.2
			c1.9-2.9,4.9-5,8.4-5.6h0.1c1.2-0.2,2-1.4,1.8-2.6c-0.2-1-0.9-1.7-1.9-1.8c-2.5-0.4-5-0.2-7.5,0.4c-2.6,0.7-5,1.9-7.1,3.5
			c-1.1,0.9-2.1,1.8-3.1,2.9c0.8-8.5-5.5-16-14-16.7c-1.8-0.2-3.6,0-5.4,0.5C23.9,8.8,28.7,17.2,37,19.4c2.1,0.6,4.2,0.7,6.3,0.4
			l-0.2,0.3c-0.7,1.3-1.3,2.6-1.7,4c-0.1,0.4-0.2,0.7-0.3,1.1c-2,0.5-4,1.2-5.9,2.1c-3.2-1.9-6.9-2.9-10.6-2.9C11,24.3,0,37.6,0,54
			s11,29.7,24.6,29.7c3.7,0,7.4-1,10.6-2.9c7.6,3.6,16.5,3.9,24.3,0.6c2.9,1.5,6.2,2.3,9.5,2.3c13.6,0,24.5-13.3,24.5-29.7
			S82.5,24.3,68.9,24.3z M68.4,44.4c1.4,0,2.5,1.1,2.5,2.5s-1.1,2.5-2.5,2.5s-2.5-1.1-2.5-2.5S67,44.4,68.4,44.4z M47.3,38.3
			l9.6,16.6H37.7L47.3,38.3z M27.1,44.4c1.4,0,2.5,1.1,2.5,2.5s-1.1,2.5-2.5,2.5s-2.5-1.1-2.5-2.5S25.7,44.4,27.1,44.4z M67.3,69.7
			l-4-8l-4,8l-4-8l-4,8l-4-8l-4,8l-4-8l-4,8l-4-8l-4,8l-4-8h48L67.3,69.7z"/>
	</g>
</g>
</svg>
