<?xml version="1.0" encoding="utf-8"?>
<!-- Generator: Adobe Illustrator 24.1.1, SVG Export Plug-In . SVG Version: 6.00 Build 0)  -->
<svg version="1.1" id="Layer_1" xmlns="http://www.w3.org/2000/svg"
     xmlns:xlink="http://www.w3.org/1999/xlink" x="0px" y="0px"
     viewBox="0 0 111.3 104" style="enable-background:new 0 0 111.3 104;" xml:space="preserve">
<style type="text/css">
	.st0{fill:#FFFFFF;}
</style>
  <g id="Layer_2_1_">
	<g id="RAW">
		<path class="st0" d="M104,89.4H71.1c-1.4-1.3-0.5-5.2,0.9-10.4c2-7.3,4.7-17.2-3-24.4s-17.4-3.8-24.5-1.3c-5.2,1.8-8.9,3-10.3,1.6
			s-0.5-5.2,0.9-10.4c1.9-7.1,4.5-16.7-2.6-23.9l0.1-0.1l-9-7.2c0,0-5.8-4.4-10.6-2.5L10,7.9V1.5C10,0.7,9.3,0,8.5,0S7,0.7,7,1.5V7
			H1.5C0.7,7,0,7.7,0,8.5S0.7,10,1.5,10h6.4l8.9,8.9L8.6,20L23,32l0.1-0.1c0.2,1.9-0.5,5-1.6,8.9c-2,7.2-4.7,17.2,3.1,24.4
			S42,69,49,66.5c5.2-1.8,8.9-3,10.4-1.6c1.4,1.4,0.5,5.2-0.9,10.4c-2,7.2-4.7,17.2,3,24.3c3,2.9,7.1,4.5,11.3,4.4H104
			c4,0,7.3-3.3,7.3-7.3S108,89.4,104,89.4L104,89.4z M24.5,23.5c-1.7,0-3-1.3-3-3s1.3-3,3-3s3,1.3,3,3S26.2,23.5,24.5,23.5z"/>
	</g>
</g>
</svg>
