<?xml version="1.0" encoding="utf-8"?>
<!-- Generator: Adobe Illustrator 24.1.1, SVG Export Plug-In . SVG Version: 6.00 Build 0)  -->
<svg version="1.1" id="Layer_1" xmlns="http://www.w3.org/2000/svg"
     xmlns:xlink="http://www.w3.org/1999/xlink" x="0px" y="0px"
     viewBox="0 0 74.6 108.9" style="enable-background:new 0 0 74.6 108.9;" xml:space="preserve">
<style type="text/css">
	.st0{fill:#FFFFFF;}
</style>
  <g id="Layer_2_1_">
	<g id="RAW">
		<path class="st0" d="M68.9,101.4H55.7c5.6-6.2,5.2-15.8-1.1-21.5c-0.8-0.7-1.7-1.4-2.7-1.9l2.4-23.8l4.2-2.1
			c4.1-2,5.8-6.9,3.9-11.1c-0.8-1.6-2.1-3-3.7-3.8L53,33.4C75.6,29.7,74.6,6.2,74.6,6.2L55,23c5.4-11-0.2-23-0.2-23l-17,33.9
			c0,0-13.4,23.5-23.6,42c-4-2.9-9.6-1.9-12.4,2.1c-2.9,4-1.9,9.6,2.1,12.4c0.6,0.4,1.3,0.8,2,1.1c-1.1,1.9-2,4-2.9,6l-0.3,0.9
			c-1.7,3.8-0.1,8.2,3.7,9.9c1,0.5,2.1,0.7,3.1,0.7h59.5c2,0,3.6-1.6,3.6-3.6c0,0,0,0,0,0C72.6,103.2,71,101.5,68.9,101.4z
			 M55.5,41.5h3.3c0.9,0,1.3,0.6,0.8,1.4L58,45.8c-0.1,0.4-0.6,0.7-1.1,0.6c-0.3-0.1-0.5-0.3-0.6-0.6l-1.6-2.9
			C54.3,42.2,54.6,41.5,55.5,41.5z M48.3,37c1.1,0,2.1,0.9,2.1,2.1s-0.9,2.1-2.1,2.1s-2.1-0.9-2.1-2.1l0,0
			C46.3,37.9,47.2,37,48.3,37z M46.7,45.5h3c0,1.7,1.3,3,3,3v3C49.3,51.5,46.7,48.8,46.7,45.5z"/>
	</g>
</g>
</svg>
