<?xml version="1.0" encoding="utf-8"?>
<!-- Generator: Adobe Illustrator 24.1.1, SVG Export Plug-In . SVG Version: 6.00 Build 0)  -->
<svg version="1.1" id="Layer_1" xmlns="http://www.w3.org/2000/svg"
     xmlns:xlink="http://www.w3.org/1999/xlink" x="0px" y="0px"
     viewBox="0 0 92.1 87.6" style="enable-background:new 0 0 92.1 87.6;" xml:space="preserve">
<style type="text/css">
	.st0{fill:#FFFFFF;}
</style>
  <g id="Layer_2_1_">
	<g id="RAW">
		<path class="st0" d="M56.7,17.3c0,1-0.8,1.8-1.8,1.8c-1,0-1.8-0.8-1.8-1.8c0-1,0.8-1.8,1.8-1.8c0,0,0,0,0,0
			C55.8,15.4,56.7,16.2,56.7,17.3z"/>
    <path class="st0" d="M36.7,17.3c0,1-0.8,1.8-1.8,1.8c-1,0-1.8-0.8-1.8-1.8c0-1,0.8-1.8,1.8-1.8c0,0,0,0,0,0
			C35.9,15.4,36.7,16.2,36.7,17.3z"/>
    <path class="st0" d="M0,87.2h13.7V66.5C5.3,69.9-0.1,78.1,0,87.2z"/>
    <polygon class="st0" points="23.7,87.2 29.5,87.2 29.7,87.2 29.7,65.2 23.7,65.2 		"/>
    <path class="st0" d="M67.7,38.7h-7.6c3.5-1.3,6.3-3.8,7.9-7.1h5.8c1.4,0,2.5-1.1,2.5-2.5c0-0.6-0.2-1.2-0.6-1.6l-9.4-10.8
			c-0.2-0.3-0.4-0.5-0.7-0.8l-0.8-0.9l0,0l0,0c3.4-3.6,4.5-8.9,2.8-13.6c-0.1-0.3-0.3-0.5-0.6-0.5c-4.8-1.7-10.1-0.6-13.7,2.9
			c-4.9-3.5-11.5-3.6-16.4-0.1c-2.4-2.3-5.6-3.6-9-3.6c-1.5,0-3.1,0.3-4.5,0.8c-0.3,0.1-0.5,0.3-0.6,0.6c-1.7,4.6-0.7,9.8,2.6,13.4
			l-0.8,0.8l0.1-0.1c0,0-0.1,0.1-0.1,0.1l0,0L13.9,27.4c-0.9,1-0.9,2.6,0.2,3.5c0.5,0.4,1.1,0.6,1.7,0.6h6.4c1.7,3.4,4.6,6,8.3,7.3
			v26.4h-0.6l10,4.4v18h6v-15l10,4v11h6v-9l10,5v3.7C85.1,84.9,94,72.3,91.8,59C89.8,47.3,79.6,38.7,67.7,38.7L67.7,38.7z M63.6,4.8
			c0.8,2.2,0.3,4.8-1.4,6.5l-5-5C58.8,4.6,61.3,4,63.6,4.8z M26.8,4.8C29,4,31.6,4.6,33.2,6.3l-5,5C26.6,9.6,26,7.1,26.8,4.8z
			 M34.9,24.4L34.9,24.4c-2.3,1.3-5.2,0.5-6.5-1.7c-0.6-1.1-0.8-2.4-0.5-3.6l0.1-0.3l0,0c0.1-0.2,0.2-0.5,0.3-0.7l1.7-3.8
			c0.1-0.3,0.2-0.6,0.4-0.9l0,0l0,0c1.6-3.1,5.4-4.3,8.5-2.7c2.6,1.4,3.9,4.4,3.2,7.2c-0.3,1.2-1,2.4-2,3.2l0,0
			c-0.3,0.3-0.7,0.5-1.1,0.7L35.5,24C35.3,24.2,35.1,24.3,34.9,24.4z M48.9,31.6c-1.2,0-2.5-0.5-3.4-1.3c-2,1.9-5.2,1.8-7.2-0.2
			c-0.9-1-1.4-2.3-1.4-3.6c0-0.8,0.7-1.5,1.5-1.5s1.5,0.7,1.5,1.5c0,1.1,0.9,2.1,2,2.1c0.7,0,1.4-0.4,1.8-1c0-0.1,0-0.2-0.1-0.3
			l-2.3-4.1h7.9l-2.3,4c0,0.1,0,0.3-0.1,0.5c0.5,1,1.8,1.5,2.8,1c0.8-0.4,1.2-1.2,1.2-2c0-0.8,0.7-1.5,1.5-1.5s1.5,0.7,1.5,1.5
			C54,29.3,51.7,31.6,48.9,31.6C48.9,31.6,48.9,31.6,48.9,31.6L48.9,31.6z M54.8,24.4L54.8,24.4c-0.2-0.1-0.3-0.2-0.5-0.3l-3.5-2.3
			c-0.4-0.2-0.8-0.5-1.1-0.7l0,0c-1-0.8-1.7-1.9-2-3.2c-0.9-3.3,1.1-6.8,4.4-7.7c2.8-0.8,5.8,0.5,7.2,3.1l0,0l0,0
			c0.2,0.3,0.3,0.6,0.4,0.9l1.7,3.9c0.1,0.2,0.2,0.5,0.3,0.7l0,0l0.1,0.3c0.7,2.5-0.8,5.2-3.4,5.8C57.2,25.2,55.9,25,54.8,24.4
			L54.8,24.4z"/>
	</g>
</g>
</svg>
