<?xml version="1.0" encoding="utf-8"?>
<!-- Generator: Adobe Illustrator 24.1.1, SVG Export Plug-In . SVG Version: 6.00 Build 0)  -->
<svg version="1.1" id="Layer_1" xmlns="http://www.w3.org/2000/svg"
     xmlns:xlink="http://www.w3.org/1999/xlink" x="0px" y="0px"
     viewBox="0 0 84 101" style="enable-background:new 0 0 84 101;" xml:space="preserve">
<style type="text/css">
	.st0{fill:#FFFFFF;}
</style>
  <g id="Layer_2_1_">
	<g id="RAW">
		<path class="st0" d="M84,15.5c0-6.1-3.2-11.8-8.4-14.9c-1.3-0.8-2.9-0.8-4.2,0c-4.1,2.5-7,6.6-8,11.3c-10.8-8.6-26.2-8.3-36.7,0.6
			c-0.9-5-3.9-9.3-8.2-11.9c-1.3-0.8-2.9-0.8-4.2,0c-8.3,5-10.9,15.7-5.9,24C10,27,12,29,14.4,30.5c0.6,0.4,1.3,0.6,2.1,0.6h0.2
			c-0.1,0.8-0.2,1.6-0.2,2.4l0,0v17.5c0.2,0.3,0.3,0.6,0.5,0.8c1.4,2,3.1,3.6,5.1,4.9c1.8,1.1,3.9,1.9,6,2.1c1,0.1,1.9,0.2,2.9,0.1
			c0.5,0,0.9-0.1,1.4-0.2l0.4-0.1c0.1-0.1,0.3-0.1,0.4-0.1l0.3-0.1l0.7-0.1c8-1.3,15.5,4.2,16.8,12.2C52.4,78.4,47,86,39,87.2
			c-0.2,0-0.3,0-0.5,0c-1.7,0.1-3.1-1.1-3.2-2.8s1.1-3.1,2.8-3.2c4.8-0.6,8.1-5,7.5-9.7s-5-8.1-9.7-7.5c-0.2,0-0.4,0.1-0.6,0.1
			l-0.7,0.2c-0.3,0.1-0.7,0.2-1,0.2c-0.7,0.1-1.3,0.2-2,0.3c-1.4,0.1-2.8,0.1-4.1-0.1c-2.9-0.4-5.8-1.4-8.3-3
			c-1.3-0.8-2.6-1.8-3.7-2.8c-1.3-1.1-2.5-2.4-3.5-3.8c-1.8-2.5-3-5.2-3.6-8.2v-0.2C8,44.4,5.9,43,3.7,43.3C2,43.6,0.6,45,0.4,46.8
			c-0.7,4.3-0.5,8.6,0.6,12.8c1.1,4.4,3.2,8.5,5.9,12.1c2.9,3.8,6.5,7,10.7,9.4l0.4,0.2c3.7,10.7,13.2,18.3,24.5,19.4v0.2l34.5-0.2
			l-9.2-10.5c4.2-5.2,6.6-11.6,6.6-18.3c0-0.3,0-0.6,0-1l0,0V33.4l0,0c0-0.8-0.1-1.6-0.2-2.4c0.5-0.1,1-0.3,1.4-0.5
			C80.8,27.3,84,21.6,84,15.5z M28.6,55c-1.5,0-2.6-1.2-2.6-2.6s1.2-2.6,2.6-2.6c1.5,0,2.6,1.2,2.6,2.6c0,0,0,0,0,0
			C31.3,53.8,30.1,55,28.6,55C28.6,55,28.6,55,28.6,55z M60.4,55c-1.5,0-2.6-1.2-2.6-2.6c0-1.5,1.2-2.6,2.6-2.6
			c1.5,0,2.6,1.2,2.6,2.6c0,0,0,0,0,0C63,53.8,61.8,55,60.4,55z"/>
	</g>
</g>
</svg>
