<?xml version="1.0" encoding="utf-8"?>
<!-- Generator: Adobe Illustrator 24.1.1, SVG Export Plug-In . SVG Version: 6.00 Build 0)  -->
<svg version="1.1" id="Layer_1" xmlns="http://www.w3.org/2000/svg"
     xmlns:xlink="http://www.w3.org/1999/xlink" x="0px" y="0px"
     viewBox="0 0 97.3 64.6" style="enable-background:new 0 0 97.3 64.6;" xml:space="preserve">
<style type="text/css">
	.st0{fill:#FFFFFF;}
</style>
  <g id="Layer_2_1_">
	<g id="RAW">
		<circle class="st0" cx="20.2" cy="21.1" r="2.5"/>
    <path class="st0" d="M97.3,20c0-5.5-4.5-10-10-10c0-5.5-4.4-10-10-10c-2.6,0-5.2,1-7,2.9c-3.9-3.7-10-3.7-13.9,0
			C52.4-1,46-0.9,42.2,3.1c-0.3,0.3-0.5,0.6-0.8,0.9H30.5c-4.3,0-8.2,2.8-9.5,7h-2.6c-4.2,0-7.8,2.9-8.7,7H9.6
			c-5.3,0.2-9.5,4.6-9.3,9.9C0.5,33,4.5,37,9.6,37.2h14.5L30.3,61c0,0,0,0.1,0,0.1l0.1,0.4l0,0c0.7,2.4,3.3,3.7,5.6,3
			c1.4-0.4,2.5-1.5,3-3l0,0l0-0.2c0-0.1,0.1-0.3,0.1-0.4l3.4-14.5c3.9,3.7,10,3.7,13.9,0c3.9,3.7,10,3.7,13.9,0l0,0l3.1,14.1v0.1
			l0,0c0.5,2.4,2.9,3.9,5.3,3.4c1.8-0.4,3.2-1.9,3.5-3.7h0.1l4.4-17.6c0.2-0.6,0.4-1.3,0.5-2h0.1c5.5,0,10-4.5,10-10
			c0-1.9-0.5-3.7-1.5-5.3C96.7,23.7,97.2,21.9,97.3,20z M27.5,33.2h-9.6c1.1-1.2,1.8-2.8,1.8-4.5c0-1.1-0.9-2-2-2s-2,0.9-2,2
			c0,2-3.4,4.5-6.1,4.5c-3.1-0.3-5.3-3-5.1-6.1c0.3-2.7,2.4-4.8,5.1-5.1h3.9v-2c0-2.7,2.2-5,4.9-5h9L27.5,33.2z M35.7,26.3
			c-3.4-2-4.6-6.3-2.6-9.7c0.6-1.1,1.5-2,2.6-2.6c3.4,2,4.6,6.3,2.6,9.7C37.7,24.8,36.8,25.7,35.7,26.3z"/>
	</g>
</g>
</svg>
