<?xml version="1.0" encoding="utf-8"?>
<!-- Generator: Adobe Illustrator 24.1.1, SVG Export Plug-In . SVG Version: 6.00 Build 0)  -->
<svg version="1.1" id="Layer_1" xmlns="http://www.w3.org/2000/svg"
     xmlns:xlink="http://www.w3.org/1999/xlink" x="0px" y="0px"
     viewBox="0 0 89.6 83.4" style="enable-background:new 0 0 89.6 83.4;" xml:space="preserve">
<style type="text/css">
	.st0{fill:#FFFFFF;}
</style>
  <g id="Layer_2_1_">
	<g id="RAW">
		<path class="st0" d="M65.1,35h-7.6c0,0-3.3-6.9-12.1-23.9L45.4,11V5.9c0-3.2-2.6-5.9-5.9-5.9c0,0,0,0,0,0v6.2
			c-2-0.3-4.1-0.1-6,0.6V0c-3.2,0-5.8,2.6-5.8,5.9v3.9c-8,5.2-15.3,13.9-15.3,13.9c-0.9,1-0.9,2.6,0.2,3.5c0.5,0.4,1.1,0.6,1.7,0.6
			h6.9l15,30.7H24.8C11.1,58.6,0,69.7,0,83.4h65.3c11.6-1.9,24.3-11.9,24.3-24C89.6,45.9,78.6,35,65.1,35z M21.2,26.3L18.7,22h5
			L21.2,26.3z M26.2,18.3c-1.4,0-2.5-1.1-2.5-2.5s1.1-2.5,2.5-2.5s2.5,1.1,2.5,2.5C28.7,17.2,27.6,18.3,26.2,18.3L26.2,18.3z
			 M34.9,15.8c0-1.4,1.1-2.5,2.5-2.5s2.5,1.1,2.5,2.5s-1.1,2.5-2.5,2.5C36,18.3,34.9,17.2,34.9,15.8C34.9,15.8,34.9,15.8,34.9,15.8
			L34.9,15.8z M47.5,79.2H6.7c0-8,6.5-14.4,14.4-14.4c0,0,0,0,0,0h35.1c0,0,20.5-1.5,26.3-10.7C82.5,54.1,87.7,79.2,47.5,79.2z"/>
	</g>
</g>
</svg>
