<?xml version="1.0" encoding="utf-8"?>
<!-- Generator: Adobe Illustrator 24.1.1, SVG Export Plug-In . SVG Version: 6.00 Build 0)  -->
<svg version="1.1" id="Layer_1" xmlns="http://www.w3.org/2000/svg"
     xmlns:xlink="http://www.w3.org/1999/xlink" x="0px" y="0px"
     viewBox="0 0 102.2 98.7" style="enable-background:new 0 0 102.2 98.7;" xml:space="preserve">
<style type="text/css">
	.st0{fill:#FFFFFF;}
</style>
  <g id="Layer_2_1_">
	<g id="RAW">
		<path class="st0" d="M102.2,10.7C102.2,5,97.7,0.3,92,0h-0.2H81.3c-9.8,0-17.7,7.9-17.7,17.7v61.1L50.3,29.4L49,16V3.1
			c0-1.3-1.1-2.4-2.5-2.4c-0.9,0-1.8,0.6-2.2,1.4l0,0L37.8,9V3.1c0-1.3-1.1-2.4-2.5-2.4c-0.9,0-1.8,0.6-2.2,1.4l0,0l-7.6,9
			c-0.2,0-0.1,0,0,0l-8.9,10.2c-2.2,2.6-1.8,6.5,0.8,8.6c0.7,0.6,1.6,1.1,2.6,1.3v27.2c-6.1,1.5-10.5,6.9-10.5,13.2v19.4H3.8
			c-2.1,0-3.8,1.7-3.8,3.8c0,2.1,1.7,3.8,3.8,3.8c0,0,0,0,0,0H47h0.3h34c8.9,0.1,16.5-6.6,17.6-15.5c0.1-0.3,0.2-0.5,0.2-0.8v-3.7
			c0-0.1,0-0.3,0-0.4c0-0.3-4.5-27.2-10.3-55.9c-0.1-0.5-0.2-1-0.3-1.5c5.6,1.7,11.6-1.5,13.3-7.2C102.1,12.7,102.2,11.7,102.2,10.7
			L102.2,10.7z M23,25.5l-1.6-2.9c-0.5-0.8-0.1-1.4,0.8-1.4h3.3c0.9,0,1.3,0.6,0.8,1.4l-1.6,2.9c-0.2,0.4-0.6,0.7-1.1,0.5
			C23.3,26,23.1,25.8,23,25.5z M24.2,33.2v-3c1.7,0,3-1.3,3-3h3C30.2,30.5,27.5,33.2,24.2,33.2C24.2,33.2,24.2,33.2,24.2,33.2
			L24.2,33.2z M34.5,17.7c-1.5,0-2.6-1.2-2.6-2.6s1.2-2.6,2.6-2.6c1.5,0,2.6,1.2,2.6,2.6c0,0,0,0,0,0C37.2,16.5,36,17.7,34.5,17.7z"
    />
	</g>
</g>
</svg>
