<?xml version="1.0" encoding="utf-8"?>
<!-- Generator: Adobe Illustrator 24.1.1, SVG Export Plug-In . SVG Version: 6.00 Build 0)  -->
<svg version="1.1" id="Layer_1" xmlns="http://www.w3.org/2000/svg"
     xmlns:xlink="http://www.w3.org/1999/xlink" x="0px" y="0px"
     viewBox="0 0 95.6 85.9" style="enable-background:new 0 0 95.6 85.9;" xml:space="preserve">
<style type="text/css">
	.st0{fill:#FFFFFF;}
</style>
  <g id="Layer_2_1_">
	<g id="RAW">
		<path class="st0" d="M61.7,51.7c-1.1,0-2,0.9-2,2c-0.1,2.5-2.1,4.5-4.6,4.4c-2,0-3.8-1.4-4.3-3.4l4-7c1.1-1.9,0.2-3.5-2-3.5h-8
			c-2.2,0-3.1,1.6-2,3.5l3.9,6.8c-0.5,2.4-2.9,4-5.3,3.5c-2-0.4-3.5-2.2-3.6-4.3c0-1.1-0.9-2-2-2s-2,0.9-2,2
			c0.1,4.6,3.8,8.3,8.4,8.3c2.5,0,4.9-1.1,6.5-3c1.6,1.9,4,3,6.5,3c4.7,0,8.5-3.7,8.5-8.3C63.7,52.6,62.8,51.7,61.7,51.7z"/>
    <path class="st0" d="M94.7,45.3L77.5,28.9c-0.2-0.2-0.5-0.4-0.8-0.6V3.5c0-1.9-1.5-3.5-3.5-3.5c-1.4,0-2.6,0.8-3.2,2l0,0L64,13
			c-9.9-6.7-23-6.6-32.8,0.3L25.4,3l0,0c-0.8-1.8-2.9-2.5-4.7-1.7c-1.2,0.6-2,1.8-2,3.2v23.8c-0.2,0.1-0.5,0.3-0.7,0.5L0.9,45.2
			C-0.7,46.7-0.2,48,2,48h2.9c0.2,12.1,5.5,23.6,14.5,31.7c1.8,1.7,4.7,1.5,6.4-0.3c0,0,0,0,0,0c0.2-0.2,0.3-0.4,0.5-0.6
			c14.2,10.1,33.5,9.4,47-1.8c1.5,2,4.3,2.4,6.3,0.9c0.2-0.2,0.4-0.3,0.6-0.5c7.6-7.9,11.9-18.4,12.1-29.3h1.4
			C95.8,48.1,96.3,46.8,94.7,45.3z M64.4,28c1.5,0,2.6,1.2,2.6,2.6c0,1.5-1.2,2.6-2.6,2.6c-1.5,0-2.6-1.2-2.6-2.6c0,0,0,0,0,0
			C61.7,29.2,62.9,28,64.4,28C64.4,28,64.4,28,64.4,28z M35.3,16.7c3.6-2.8,8-4.3,12.5-4.3l0,0c4.6,0,9,1.5,12.6,4.4
			c0.9,0.7,1,2,0.3,2.8c-0.7,0.9-2,1-2.8,0.3c-2.9-2.3-6.4-3.5-10.1-3.5l0,0c-3.6,0-7.2,1.2-10,3.5c-0.9,0.7-2.1,0.5-2.8-0.3
			C34.3,18.7,34.5,17.4,35.3,16.7L35.3,16.7z M56.5,26.9c-0.4,0.5-1,0.7-1.6,0.8c-0.5,0-0.9-0.1-1.3-0.4c-1.7-1.3-3.7-2.1-5.8-2l0,0
			c-2.1,0-4.2,0.7-5.8,2c-0.9,0.7-2.1,0.5-2.8-0.3c-0.7-0.9-0.5-2.1,0.3-2.8l0,0c2.4-1.9,5.3-2.9,8.3-2.9l0,0c3,0,6,1,8.3,2.9
			C57,24.8,57.2,26,56.5,26.9C56.5,26.9,56.5,26.9,56.5,26.9z M33.1,28c1.5,0,2.6,1.2,2.6,2.6c0,1.5-1.2,2.6-2.6,2.6
			c-1.5,0-2.6-1.2-2.6-2.6c0,0,0,0,0,0C30.5,29.2,31.6,28,33.1,28C33.1,28,33.1,28,33.1,28z M48.5,76.9c-16,0-29.1-12.7-29.6-28.7
			h11c3.2-7.4,10.6-12.1,18.6-12c8.1-0.1,15.4,4.6,18.6,12c0,0,10.5,0,11,0C77.7,64.2,64.5,77,48.5,76.9z"/>
	</g>
</g>
</svg>
