<?xml version="1.0" encoding="utf-8"?>
<!-- Generator: Adobe Illustrator 24.1.1, SVG Export Plug-In . SVG Version: 6.00 Build 0)  -->
<svg version="1.1" id="Layer_1" xmlns="http://www.w3.org/2000/svg"
     xmlns:xlink="http://www.w3.org/1999/xlink" x="0px" y="0px"
     viewBox="0 0 104.1 51.3" style="enable-background:new 0 0 104.1 51.3;" xml:space="preserve">
<style type="text/css">
	.st0{fill:#FFFFFF;}
</style>
  <g id="Layer_2_1_">
	<g id="RAW">
		<path class="st0" d="M95.9,30.9h5.3c1.1,0.1,2,1.1,1.9,2.2c-0.1,1-0.9,1.9-1.9,1.9h-5.3"/>
    <path class="st0" d="M85.4,7.6L76.6,14l5.5,16.9h14.1C96.2,21.9,92.3,13.4,85.4,7.6z"/>
    <path class="st0" d="M74,10.9L74,10.9l8-5.7C70.8-1.7,56.8-1.8,45.6,5l8,5.9L74,10.9z"/>
    <polygon class="st0" points="55,14.9 49.8,30.9 77.9,30.9 72.7,14.9 		"/>
    <path class="st0" d="M95.9,35H34.2c-1.1-0.1-2-1.1-1.9-2.2c0.1-1,0.9-1.8,1.9-1.9h11.5L51.1,14l-9-6.5c-4.3,3.5-7.5,8.1-9.3,13.3
			L20.1,8.7l0,0C15,4.4,7.3,5,2.9,10.2s-3.6,12.9,1.5,17.2c1.5,1.2,3.2,2.1,5,2.5c2.2-0.7,4.1-2,5.4-3.9c0.6-0.8,1-1.7,1.3-2.7
			c0.5-1,1.6-1.5,2.6-1c0.9,0.4,1.3,1.3,1.1,2.2c-0.4,1.3-1.1,2.6-1.9,3.7c-0.5,0.7-1,1.3-1.5,1.9l5.6,5.2c-4.9,3.9-7.8,9.8-7.8,16
			h9c0-5.8,4.5-10.7,10.3-11.3h51.5c5.7,0.8,9.9,5.6,9.9,11.3h9C104.1,44.9,101,38.8,95.9,35z M11.4,17.5c-1.5,0-2.6-1.2-2.7-2.6
			c0-1.5,1.2-2.6,2.6-2.7s2.6,1.2,2.7,2.6c0,0,0,0,0,0C14,16.3,12.8,17.4,11.4,17.5z"/>
	</g>
</g>
</svg>
