<?xml version="1.0" encoding="utf-8"?>
<!-- Generator: Adobe Illustrator 24.1.1, SVG Export Plug-In . SVG Version: 6.00 Build 0)  -->
<svg version="1.1" id="Layer_1" xmlns="http://www.w3.org/2000/svg"
     xmlns:xlink="http://www.w3.org/1999/xlink" x="0px" y="0px"
     viewBox="0 0 102 86.5" style="enable-background:new 0 0 102 86.5;" xml:space="preserve">
<style type="text/css">
	.st0{fill:#FFFFFF;}
</style>
  <g id="Layer_2_1_">
	<g id="RAW">
		<path class="st0" d="M101.9,7.7c-0.1-0.5-0.5-0.9-1-0.9c-5.3,0-9.3,1.5-12.1,4.5c-1.3,1.4-2.2,3-2.8,4.8c-0.6-1.8-1.6-3.4-2.8-4.8
			c-2.8-3-6.8-4.5-12.1-4.5c-0.5,0-0.9,0.4-1,0.9c0,0.3-0.9,6.6,3.2,11.3c2.4,2.8,6.1,4.4,11,4.7c-0.8,4.4-2.3,8.7-4.3,12.8
			c-1.9,3.8-4.5,7.2-7.7,9.9c-2,1.6-4.2,2.9-6.6,3.7L63.4,18c0-9.9-8.1-18-18-18h-5.2c-9.9,0-18,8.1-18,18l-2.5,38.7
			c0,0-0.2,23.6-17.3,23.6c-1.3,0-2.4,1-2.4,2.3c0,0,0,0,0,0l0.3,3.8h2.1c0,0,20.3,0,20.3-10.1c0,0,1.8,8.3,17.4,8.3h5.6
			c5.3,0,9-1,11.6-2.2l0.6-0.2c2-0.7,4.1-1.6,6.1-2.5c3.9,6.7,19.4,6.7,19.4,6.7h2.1l0.3-3.8c0-1.3-1.1-2.4-2.4-2.4l0,0
			c-4.4,0.1-8.6-1.8-11.4-5.3c1.2-0.9,2.4-1.8,3.6-2.8c5.1-4.3,9.2-9.8,11.8-16c2.3-5.5,3.5-11.4,3.5-17.4
			c0.1-5.2-0.6-10.3-1.9-15.4c4.3-0.5,7.7-2,9.9-4.6C102.8,14.3,101.9,8,101.9,7.7z M50.6,18.9c1.2,0,2.3,1,2.3,2.3
			c0,1.2-1,2.3-2.3,2.3c-1.2,0-2.3-1-2.3-2.3c0,0,0,0,0,0C48.3,19.9,49.3,18.9,50.6,18.9z M32.6,18.9c1.2,0,2.3,1,2.3,2.3
			c0,1.2-1,2.3-2.3,2.3c-1.2,0-2.3-1-2.3-2.3c0,0,0,0,0,0C30.3,19.9,31.3,18.9,32.6,18.9L32.6,18.9z M54.6,50.3
			c-0.7,2.7-1.7,5.3-3,7.8c-1.3,2.4-2.9,4.6-4.8,6.6c-0.7,0.8-2,0.9-2.8,0.2c-0.8-0.7-0.9-1.9-0.2-2.7l0,0c2.8-3.8,4.5-8.2,5-12.9
			c0.3-3.4,0.1-6.9-0.8-10.2c-0.1-0.5-0.3-1.1-0.5-1.6v-0.1h-0.1c-2.2,0-4.2-1-5.5-2.7c-1.2,1.6-3,2.5-5,2.7l0,0.2
			c-0.2,0.5-0.3,1-0.5,1.6c-0.3,1.1-0.5,2.2-0.7,3.3c-0.3,2.3-0.4,4.6-0.1,6.8c0.5,4.7,2.2,9.1,5,12.9l0,0c0.7,0.9,0.5,2.1-0.4,2.8
			c-0.8,0.6-2,0.5-2.7-0.2c-1.9-2-3.5-4.2-4.8-6.6c-1.3-2.5-2.3-5.1-3-7.8c-0.7-2.7-1-5.5-1-8.3c0-1.4,0.1-2.8,0.3-4.2
			c0.1-0.7,0.2-1.4,0.3-2.1c0.1-0.4,0.1-0.7,0.2-1.1s0.2-0.7,0.3-1.2l0.1-0.2c-0.4-0.9-0.6-1.9-0.6-2.9c0-0.8,0.7-1.5,1.5-1.5
			c0.8,0,1.5,0.7,1.5,1.5c-0.2,2.2,1.5,4.1,3.7,4.3c2.2,0.2,4.1-1.5,4.3-3.7L37,27.7c-0.6-0.6-0.7-1.5-0.1-2.1
			c0.6-0.6,1.5-0.7,2.1-0.1c0,0,0,0,0.1,0.1l2.6,2.5l2.1-2c0.6-0.6,1.6-0.6,2.2,0s0.6,1.6,0,2.2l-2.6,2.5c0.2,2.2,2.1,3.9,4.3,3.7
			c2.2-0.2,3.9-2.1,3.7-4.3c0-0.8,0.7-1.5,1.5-1.5s1.5,0.7,1.5,1.5c0,0.7-0.2,1.4-0.4,2.1c0.1,0.1,0.1,0.3,0.2,0.4l0.2,0.5
			c0.2,0.5,0.2,0.8,0.3,1.2s0.2,0.7,0.2,1.1c0.1,0.7,0.2,1.4,0.3,2.1c0.2,1.4,0.3,2.8,0.3,4.2C55.5,44.7,55.2,47.5,54.6,50.3
			L54.6,50.3z"/>
	</g>
</g>
</svg>
