<?xml version="1.0" encoding="utf-8"?>
<!-- Generator: Adobe Illustrator 24.1.1, SVG Export Plug-In . SVG Version: 6.00 Build 0)  -->
<svg version="1.1" id="Layer_1" xmlns="http://www.w3.org/2000/svg"
     xmlns:xlink="http://www.w3.org/1999/xlink" x="0px" y="0px"
     viewBox="0 0 87.3 100.5" style="enable-background:new 0 0 87.3 100.5;" xml:space="preserve">
<style type="text/css">
	.st0{fill:#FFFFFF;}
</style>
  <g id="Layer_2_1_">
	<g id="RAW">
		<path class="st0"
          d="M48.5,55.2c2.2,0,3.1,1.6,2,3.5l-4,7.1c-1.1,1.9-2.9,1.9-4,0l-4-7c-1.1-1.9-0.2-3.5,2-3.5L48.5,55.2z"/>
    <path class="st0" d="M50.9,73c-4.7,0-8.5-3.7-8.5-8.3c0-1.1,0.9-2,2-2s2,0.9,2,2c0,2.5,2,4.5,4.5,4.5s4.5-2,4.5-4.5
			c0-1.1,0.9-2,2-2s2,0.9,2,2C59.4,69.3,55.6,73,50.9,73z"/>
    <path class="st0" d="M37.9,73c-4.7,0-8.5-3.7-8.5-8.3c0-1.1,0.9-2,2-2c1.1,0,2,0.9,2,2c0,2.5,2,4.5,4.5,4.5s4.5-2,4.5-4.5
			c0-1.1,0.9-2,2-2s2,0.9,2,2C46.4,69.3,42.6,73,37.9,73z"/>
    <path class="st0" d="M86.6,68.9L72.8,53c-0.1-0.1-0.3-0.3-0.4-0.4V3.5c0-1.9-1.6-3.5-3.5-3.5c-1.3,0-2.6,0.8-3.2,2l0,0v0.1v0.1
			l-8,17.6c-8.8-5-19.7-5-28.5,0l-8-17.6V2.1V2l0,0c-0.4-1.9-2.3-3.1-4.2-2.7S14,1.6,14.4,3.5V53l-0.1,0.1L0.8,68.9
			c-1.4,1.7-0.8,3,1.4,3h15.8h0.3v4.9l0.1,0.2c0.7,13.1,12.2,23.5,26.2,23.5c14.5,0,26.2-11.1,26.2-24.8c0-0.1,0-0.2,0-0.3V72h14.5
			C87.4,72,88,70.6,86.6,68.9z M26.1,34.6c0-1.5,1.2-2.6,2.6-2.6s2.6,1.2,2.6,2.6c0,1.5-1.2,2.6-2.6,2.6c0,0,0,0,0,0
			C27.3,37.3,26.1,36.1,26.1,34.6C26.1,34.6,26.1,34.6,26.1,34.6z M61.7,57.6v18l0,0c0,0.1,0,0.2,0,0.2c-0.1,8.6-7.8,15.6-17.2,15.6
			s-17.2-7.1-17.2-15.8c0-0.2,0-0.5-0.1-0.7v-6.1c0.1,0.1,0-11.3,0-11.4c0-8.8,7.9-16,17.4-16s17.1,7.1,17.1,16
			C61.7,57.5,61.7,57.6,61.7,57.6L61.7,57.6z M60,37.3c-1.5,0-2.6-1.2-2.6-2.6S58.5,32,60,32c1.5,0,2.6,1.2,2.6,2.6l0,0
			C62.6,36.1,61.5,37.3,60,37.3z"/>
	</g>
</g>
</svg>
