<?xml version="1.0" encoding="utf-8"?>
<!-- Generator: Adobe Illustrator 24.1.1, SVG Export Plug-In . SVG Version: 6.00 Build 0)  -->
<svg version="1.1" id="Layer_1" xmlns="http://www.w3.org/2000/svg"
     xmlns:xlink="http://www.w3.org/1999/xlink" x="0px" y="0px"
     viewBox="0 0 77.8 96.1" style="enable-background:new 0 0 77.8 96.1;" xml:space="preserve">
<style type="text/css">
	.st0{fill:#FFFFFF;}
</style>
  <g id="Layer_2_1_">
	<g id="RAW">
		<path class="st0" d="M69.4,41.9c-1.8-1.4-3.8-2.5-5.9-3.2c-2.2-0.7-4.5-1-6.9-0.9c-1.1,0.1-2.3,0.2-3.3,0.6
			c-0.5,0.2-1,0.3-1.5,0.6c-0.3,0.1-0.5,0.2-0.7,0.4l-0.3,0.1c-0.1,0.1-0.3,0.2-0.5,0.3l-0.2,0.1c-2.4,1.7-5.8,1.1-7.5-1.4
			c-1.4-2-1.3-4.6,0.2-6.4c0.1-0.2,0.2-0.3,0.4-0.5l0.6-0.6c0.4-0.4,0.8-0.8,1.1-1.1c0.8-0.7,1.6-1.4,2.5-2c1.7-1.2,3.6-2.2,5.6-3
			c3.9-1.6,8-2.4,12.2-2.4c2.5,0,5,0.2,7.5,0.7c-0.1-0.3-0.2-0.5-0.3-0.8l0.6,0.6c5-5,6.3-12.6,3.3-18.9l-0.5-1l-1-0.5
			c-5.9-2.8-12.9-1.8-17.9,2.4c-11-6.3-24.4-6.5-35.5-0.6C16.4-0.2,9.1-1.3,3,1.6L2,2.1L1.6,3c-3,6.4-1.7,13.9,3.3,18.9l0.2-0.2
			C5.1,21.8,5,21.9,5,22c2.2-0.4,4.5-0.6,6.8-0.6c4.2,0,8.3,0.8,12.2,2.4c2,0.8,3.8,1.8,5.6,3c0.9,0.6,1.7,1.3,2.5,2
			c0.4,0.4,0.7,0.8,1.1,1.2l0.6,0.6c0.2,0.2,0.3,0.3,0.4,0.5c1.8,2.3,1.4,5.7-0.9,7.6c-1.8,1.4-4.4,1.5-6.3,0.2l-0.2-0.1
			c-0.1-0.1-0.4-0.3-0.5-0.3L26,38.4c-0.2-0.1-0.5-0.2-0.7-0.3c-0.5-0.2-1-0.4-1.5-0.6c-1.1-0.3-2.2-0.5-3.3-0.6
			c-2.3-0.1-4.6,0.2-6.9,0.9c-2.1,0.7-4.2,1.8-5.9,3.2c-1.6,1.3-3,2.8-4.1,4.6C3.3,45.8,3.2,46,3,46.1c1.3,4.9,3.5,9.4,6.6,13.3
			l28.4,36.3l0.1,0.1c0.3,0.2,0.7,0.2,0.9-0.1c0,0,0,0,0,0l28.5-36.3c2.9-3.7,5-7.9,6.3-12.4c-0.1-0.2-0.2-0.4-0.4-0.5
			C72.5,44.8,71.1,43.2,69.4,41.9z M71.2,7.6c1.2,3.3,0.6,7-1.4,9.8c-0.7-1.1-1.4-2.2-2.2-3.3c-1.6-2.1-3.4-3.9-5.4-5.6
			C64.9,6.9,68.2,6.5,71.2,7.6z M15.9,7.9c-3.1,2.4-5.8,5.3-7.9,8.5c-2-2.8-2.6-6.5-1.4-9.8c3.2-1.1,6.7-0.7,9.5,1.2L15.9,7.9z
			 M17.9,50.5c-1.4,0-2.5-1.1-2.5-2.5s1.1-2.5,2.5-2.5s2.5,1.1,2.5,2.5C20.4,49.4,19.3,50.5,17.9,50.5
			C17.9,50.5,17.9,50.5,17.9,50.5L17.9,50.5z M47.1,76c-0.9,0-1.8-0.1-2.6-0.3L42,78.2l-1.9-5c-0.6-0.6-1.1-1.2-1.6-1.9
			C36.7,74.2,33.5,76,30,76c-1.1,0-2-0.9-2-2s0.9-2,2-2c3.1,0,5.8-2.3,6.2-5.4l-6.3-10.8h16.9L40.9,66c0.1,3.3,2.9,6,6.2,6
			c1.1,0,2,0.9,2,2S48.2,76,47.1,76z M60.1,50.5c-1.4,0-2.5-1.1-2.5-2.5c0-1.4,1.1-2.5,2.5-2.5c1.4,0,2.5,1.1,2.5,2.5c0,0,0,0,0,0
			C62.6,49.4,61.5,50.5,60.1,50.5L60.1,50.5z"/>
	</g>
</g>
</svg>
