<?xml version="1.0" encoding="utf-8"?>
<!-- Generator: Adobe Illustrator 24.1.1, SVG Export Plug-In . SVG Version: 6.00 Build 0)  -->
<svg version="1.1" id="Layer_1" xmlns="http://www.w3.org/2000/svg"
     xmlns:xlink="http://www.w3.org/1999/xlink" x="0px" y="0px"
     viewBox="0 0 102.7 71" style="enable-background:new 0 0 102.7 71;" xml:space="preserve">
<style type="text/css">
	.st0{fill:#FFFFFF;}
</style>
  <g id="Layer_2_1_">
	<g id="RAW">
		<path class="st0" d="M102.7,34c0-18.8-15.2-34-34-34c-3.1,0-6.2,0.4-9.3,1.3l0,0c-0.9,0.3-1.9,0.6-2.8,0.9
			C43.8,6.4,34.4,10,28.2,12.5c0-0.3,0-0.6,0-1C28.3,6.3,24,2,18.8,2v14.6c-3.6,1.7-6.6,4.6-8.4,8.2l0,0L9.9,26L0,47
			c0.9,3.1,3.6,5.4,6.9,5.7c2.8,0.3,12.1,1.6,21,2.9c-0.6,2.3-1.2,4.7-1.7,6.8l0,0c-1,4.1-1.9,7.2-2,7.5L40,70l5-12l2,0.3l28.2,3.1
			c0.5,0,0.9,0,1.4,0c-1.3,5.1-2.3,9.3-2.5,9.7H90l10.3-25.6c0.1-0.3,0.2-0.5,0.3-0.7l0.4-0.9l0,0C102.1,40.7,102.7,37.4,102.7,34z
			 M18.8,33.5c-1.4,0-2.5-1.1-2.5-2.5c0-1.4,1.1-2.5,2.5-2.5s2.5,1.1,2.5,2.5C21.3,32.4,20.2,33.5,18.8,33.5z"/>
	</g>
</g>
</svg>
